<mxfile host="Electron" agent="Mozilla/5.0 (Macintosh; Intel Mac OS X 10_15_7) AppleWebKit/537.36 (KHTML, like Gecko) draw.io/26.0.4 Chrome/128.0.6613.186 Electron/32.2.5 Safari/537.36" version="26.0.4">
  <diagram id="0WeiMkMH_n1F1Pwc_BeX" name="Pagina-2">
    <mxGraphModel dx="1706" dy="1253" grid="1" gridSize="10" guides="1" tooltips="1" connect="1" arrows="1" fold="1" page="1" pageScale="1" pageWidth="1654" pageHeight="1169" math="0" shadow="0">
      <root>
        <mxCell id="0" />
        <mxCell id="1" parent="0" />
        <mxCell id="0Q-Z46yVu78t82k5OUXV-1" value="Utente" style="shape=umlActor;verticalLabelPosition=bottom;verticalAlign=top;html=1;outlineConnect=0;" parent="1" vertex="1">
          <mxGeometry x="30" y="60" width="30" height="60" as="geometry" />
        </mxCell>
        <mxCell id="0Q-Z46yVu78t82k5OUXV-2" value="" style="rounded=0;whiteSpace=wrap;html=1;" parent="1" vertex="1">
          <mxGeometry x="130" y="10" width="240" height="170" as="geometry" />
        </mxCell>
        <mxCell id="0Q-Z46yVu78t82k5OUXV-3" value="LLM Assistente Virtuale" style="text;html=1;align=center;verticalAlign=middle;whiteSpace=wrap;rounded=0;" parent="1" vertex="1">
          <mxGeometry x="185" y="10" width="130" height="30" as="geometry" />
        </mxCell>
        <mxCell id="0Q-Z46yVu78t82k5OUXV-4" value="U.C.1 Utilizza Chat" style="ellipse;whiteSpace=wrap;html=1;" parent="1" vertex="1">
          <mxGeometry x="165" y="50.5" width="180" height="80" as="geometry" />
        </mxCell>
        <mxCell id="0Q-Z46yVu78t82k5OUXV-5" value="" style="endArrow=none;html=1;rounded=0;entryX=0;entryY=0.5;entryDx=0;entryDy=0;" parent="1" source="0Q-Z46yVu78t82k5OUXV-1" target="0Q-Z46yVu78t82k5OUXV-4" edge="1">
          <mxGeometry width="50" height="50" relative="1" as="geometry">
            <mxPoint x="80" y="250" as="sourcePoint" />
            <mxPoint x="130" y="200" as="targetPoint" />
          </mxGeometry>
        </mxCell>
        <mxCell id="1MegjZ76K6dNuqhR-MKq-10" value="Utente" style="shape=umlActor;verticalLabelPosition=bottom;verticalAlign=top;html=1;outlineConnect=0;" parent="1" vertex="1">
          <mxGeometry x="30" y="245" width="30" height="60" as="geometry" />
        </mxCell>
        <mxCell id="1MegjZ76K6dNuqhR-MKq-11" value="" style="rounded=0;whiteSpace=wrap;html=1;" parent="1" vertex="1">
          <mxGeometry x="130" y="190" width="480" height="156" as="geometry" />
        </mxCell>
        <mxCell id="1MegjZ76K6dNuqhR-MKq-12" value="LLM Assistente Virtuale" style="text;html=1;align=center;verticalAlign=middle;whiteSpace=wrap;rounded=0;" parent="1" vertex="1">
          <mxGeometry x="305" y="190" width="130" height="30" as="geometry" />
        </mxCell>
        <mxCell id="1MegjZ76K6dNuqhR-MKq-13" value="U.C.1 Utilizza Chat" style="ellipse;whiteSpace=wrap;html=1;" parent="1" vertex="1">
          <mxGeometry x="160" y="244.5" width="180" height="60.5" as="geometry" />
        </mxCell>
        <mxCell id="1MegjZ76K6dNuqhR-MKq-14" value="" style="endArrow=none;html=1;rounded=0;entryX=0;entryY=0.5;entryDx=0;entryDy=0;" parent="1" source="1MegjZ76K6dNuqhR-MKq-10" target="1MegjZ76K6dNuqhR-MKq-13" edge="1">
          <mxGeometry width="50" height="50" relative="1" as="geometry">
            <mxPoint x="80" y="435" as="sourcePoint" />
            <mxPoint x="130" y="385" as="targetPoint" />
          </mxGeometry>
        </mxCell>
        <mxCell id="w251UVghd8SI2IncATsu-7" value="U.C.1.1 Scrivi Messaggio" style="ellipse;whiteSpace=wrap;html=1;" parent="1" vertex="1">
          <mxGeometry x="410" y="244.5" width="180" height="60.5" as="geometry" />
        </mxCell>
        <mxCell id="w251UVghd8SI2IncATsu-9" value="" style="endArrow=block;endSize=16;endFill=0;html=1;rounded=0;exitX=0;exitY=0.5;exitDx=0;exitDy=0;entryX=1;entryY=0.5;entryDx=0;entryDy=0;" parent="1" source="w251UVghd8SI2IncATsu-7" target="1MegjZ76K6dNuqhR-MKq-13" edge="1">
          <mxGeometry width="160" relative="1" as="geometry">
            <mxPoint x="310" y="276" as="sourcePoint" />
            <mxPoint x="470" y="276" as="targetPoint" />
          </mxGeometry>
        </mxCell>
        <mxCell id="w251UVghd8SI2IncATsu-10" value="Utente" style="shape=umlActor;verticalLabelPosition=bottom;verticalAlign=top;html=1;outlineConnect=0;" parent="1" vertex="1">
          <mxGeometry x="30" y="415" width="30" height="60" as="geometry" />
        </mxCell>
        <mxCell id="w251UVghd8SI2IncATsu-11" value="" style="rounded=0;whiteSpace=wrap;html=1;" parent="1" vertex="1">
          <mxGeometry x="130" y="360" width="480" height="156" as="geometry" />
        </mxCell>
        <mxCell id="w251UVghd8SI2IncATsu-12" value="LLM Assistente Virtuale" style="text;html=1;align=center;verticalAlign=middle;whiteSpace=wrap;rounded=0;" parent="1" vertex="1">
          <mxGeometry x="305" y="360" width="130" height="30" as="geometry" />
        </mxCell>
        <mxCell id="w251UVghd8SI2IncATsu-13" value="U.C.1 Utilizza Chat" style="ellipse;whiteSpace=wrap;html=1;" parent="1" vertex="1">
          <mxGeometry x="160" y="414.5" width="180" height="60.5" as="geometry" />
        </mxCell>
        <mxCell id="w251UVghd8SI2IncATsu-14" value="" style="endArrow=none;html=1;rounded=0;entryX=0;entryY=0.5;entryDx=0;entryDy=0;" parent="1" source="w251UVghd8SI2IncATsu-10" target="w251UVghd8SI2IncATsu-13" edge="1">
          <mxGeometry width="50" height="50" relative="1" as="geometry">
            <mxPoint x="80" y="605" as="sourcePoint" />
            <mxPoint x="130" y="555" as="targetPoint" />
          </mxGeometry>
        </mxCell>
        <mxCell id="w251UVghd8SI2IncATsu-15" value="U.C.1.2 Visualizza Risposta" style="ellipse;whiteSpace=wrap;html=1;" parent="1" vertex="1">
          <mxGeometry x="410" y="414.5" width="180" height="60.5" as="geometry" />
        </mxCell>
        <mxCell id="w251UVghd8SI2IncATsu-16" value="" style="endArrow=block;endSize=16;endFill=0;html=1;rounded=0;exitX=0;exitY=0.5;exitDx=0;exitDy=0;entryX=1;entryY=0.5;entryDx=0;entryDy=0;" parent="1" source="w251UVghd8SI2IncATsu-15" target="w251UVghd8SI2IncATsu-13" edge="1">
          <mxGeometry width="160" relative="1" as="geometry">
            <mxPoint x="310" y="446" as="sourcePoint" />
            <mxPoint x="470" y="446" as="targetPoint" />
          </mxGeometry>
        </mxCell>
        <mxCell id="w251UVghd8SI2IncATsu-17" value="Utente" style="shape=umlActor;verticalLabelPosition=bottom;verticalAlign=top;html=1;outlineConnect=0;" parent="1" vertex="1">
          <mxGeometry x="30" y="585" width="30" height="60" as="geometry" />
        </mxCell>
        <mxCell id="w251UVghd8SI2IncATsu-18" value="" style="rounded=0;whiteSpace=wrap;html=1;" parent="1" vertex="1">
          <mxGeometry x="130" y="530" width="480" height="156" as="geometry" />
        </mxCell>
        <mxCell id="w251UVghd8SI2IncATsu-19" value="LLM Assistente Virtuale" style="text;html=1;align=center;verticalAlign=middle;whiteSpace=wrap;rounded=0;" parent="1" vertex="1">
          <mxGeometry x="305" y="530" width="130" height="30" as="geometry" />
        </mxCell>
        <mxCell id="w251UVghd8SI2IncATsu-20" value="U.C.1 Utilizza Chat" style="ellipse;whiteSpace=wrap;html=1;" parent="1" vertex="1">
          <mxGeometry x="160" y="584.5" width="180" height="60.5" as="geometry" />
        </mxCell>
        <mxCell id="w251UVghd8SI2IncATsu-21" value="" style="endArrow=none;html=1;rounded=0;entryX=0;entryY=0.5;entryDx=0;entryDy=0;" parent="1" source="w251UVghd8SI2IncATsu-17" target="w251UVghd8SI2IncATsu-20" edge="1">
          <mxGeometry width="50" height="50" relative="1" as="geometry">
            <mxPoint x="80" y="775" as="sourcePoint" />
            <mxPoint x="130" y="725" as="targetPoint" />
          </mxGeometry>
        </mxCell>
        <mxCell id="w251UVghd8SI2IncATsu-22" value="U.C.1.3 Seleziona Template" style="ellipse;whiteSpace=wrap;html=1;" parent="1" vertex="1">
          <mxGeometry x="410" y="584.5" width="180" height="60.5" as="geometry" />
        </mxCell>
        <mxCell id="w251UVghd8SI2IncATsu-23" value="" style="endArrow=block;endSize=16;endFill=0;html=1;rounded=0;exitX=0;exitY=0.5;exitDx=0;exitDy=0;entryX=1;entryY=0.5;entryDx=0;entryDy=0;" parent="1" source="w251UVghd8SI2IncATsu-22" target="w251UVghd8SI2IncATsu-20" edge="1">
          <mxGeometry width="160" relative="1" as="geometry">
            <mxPoint x="310" y="616" as="sourcePoint" />
            <mxPoint x="470" y="616" as="targetPoint" />
          </mxGeometry>
        </mxCell>
        <mxCell id="RF9o575scOdGBYsbL9Bb-1" value="" style="rounded=0;whiteSpace=wrap;html=1;" parent="1" vertex="1">
          <mxGeometry x="780" y="10" width="360" height="307.5" as="geometry" />
        </mxCell>
        <mxCell id="RF9o575scOdGBYsbL9Bb-2" value="Utente" style="shape=umlActor;verticalLabelPosition=bottom;verticalAlign=top;html=1;outlineConnect=0;" parent="1" vertex="1">
          <mxGeometry x="670" y="50" width="30" height="60" as="geometry" />
        </mxCell>
        <mxCell id="RF9o575scOdGBYsbL9Bb-3" value="U.C.1.2 Visualizza Risposta" style="ellipse;whiteSpace=wrap;html=1;" parent="1" vertex="1">
          <mxGeometry x="800" y="55" width="192.5" height="50" as="geometry" />
        </mxCell>
        <mxCell id="RF9o575scOdGBYsbL9Bb-4" value="U.C.1.4 Prodotto non trovato" style="ellipse;whiteSpace=wrap;html=1;" parent="1" vertex="1">
          <mxGeometry x="800" y="245" width="192.5" height="50" as="geometry" />
        </mxCell>
        <mxCell id="RF9o575scOdGBYsbL9Bb-5" value="&amp;nbsp;Messaggio&lt;div&gt;&amp;nbsp;Errore&lt;/div&gt;" style="shape=note;whiteSpace=wrap;html=1;backgroundOutline=1;darkOpacity=0.05;align=center;" parent="1" vertex="1">
          <mxGeometry x="992.5" y="127.5" width="127.5" height="100" as="geometry" />
        </mxCell>
        <mxCell id="RF9o575scOdGBYsbL9Bb-6" value="&amp;lt;&amp;lt;extends&amp;gt;&amp;gt;" style="endArrow=open;endSize=12;dashed=1;html=1;rounded=0;entryX=0.5;entryY=1;entryDx=0;entryDy=0;exitX=0.5;exitY=0;exitDx=0;exitDy=0;" parent="1" source="RF9o575scOdGBYsbL9Bb-4" target="RF9o575scOdGBYsbL9Bb-3" edge="1">
          <mxGeometry y="36" width="160" relative="1" as="geometry">
            <mxPoint x="810" y="195" as="sourcePoint" />
            <mxPoint x="970" y="195" as="targetPoint" />
            <mxPoint as="offset" />
          </mxGeometry>
        </mxCell>
        <mxCell id="RF9o575scOdGBYsbL9Bb-7" value="" style="endArrow=none;dashed=1;html=1;dashPattern=1 3;strokeWidth=2;rounded=0;entryX=0;entryY=0.5;entryDx=0;entryDy=0;entryPerimeter=0;" parent="1" target="RF9o575scOdGBYsbL9Bb-5" edge="1">
          <mxGeometry width="50" height="50" relative="1" as="geometry">
            <mxPoint x="900" y="178" as="sourcePoint" />
            <mxPoint x="1060" y="435" as="targetPoint" />
          </mxGeometry>
        </mxCell>
        <mxCell id="RF9o575scOdGBYsbL9Bb-8" value="&lt;span style=&quot;font-weight: 400;&quot;&gt;U.C.1 Visualizza Chat&lt;/span&gt;" style="text;align=center;fontStyle=1;verticalAlign=middle;spacingLeft=3;spacingRight=3;strokeColor=none;rotatable=0;points=[[0,0.5],[1,0.5]];portConstraint=eastwest;html=1;" parent="1" vertex="1">
          <mxGeometry x="920" y="17" width="80" height="26" as="geometry" />
        </mxCell>
        <mxCell id="RF9o575scOdGBYsbL9Bb-9" value="" style="endArrow=none;html=1;rounded=0;entryX=0;entryY=0.5;entryDx=0;entryDy=0;" parent="1" source="RF9o575scOdGBYsbL9Bb-2" target="RF9o575scOdGBYsbL9Bb-3" edge="1">
          <mxGeometry width="50" height="50" relative="1" as="geometry">
            <mxPoint x="670" y="395" as="sourcePoint" />
            <mxPoint x="720" y="345" as="targetPoint" />
          </mxGeometry>
        </mxCell>
        <mxCell id="R6dQG0pAH_0pQPWXoHSF-1" value="Utente" style="shape=umlActor;verticalLabelPosition=bottom;verticalAlign=top;html=1;outlineConnect=0;" parent="1" vertex="1">
          <mxGeometry x="30" y="770" width="30" height="60" as="geometry" />
        </mxCell>
        <mxCell id="R6dQG0pAH_0pQPWXoHSF-2" value="" style="rounded=0;whiteSpace=wrap;html=1;" parent="1" vertex="1">
          <mxGeometry x="130" y="720" width="240" height="150" as="geometry" />
        </mxCell>
        <mxCell id="R6dQG0pAH_0pQPWXoHSF-3" value="LLM Assistente Virtuale" style="text;html=1;align=center;verticalAlign=middle;whiteSpace=wrap;rounded=0;" parent="1" vertex="1">
          <mxGeometry x="185" y="720" width="130" height="30" as="geometry" />
        </mxCell>
        <mxCell id="R6dQG0pAH_0pQPWXoHSF-4" value="U.C.2 Visualizza lista conversazioni" style="ellipse;whiteSpace=wrap;html=1;" parent="1" vertex="1">
          <mxGeometry x="155" y="755" width="190" height="90" as="geometry" />
        </mxCell>
        <mxCell id="R6dQG0pAH_0pQPWXoHSF-5" value="" style="endArrow=none;html=1;rounded=0;entryX=0;entryY=0.5;entryDx=0;entryDy=0;" parent="1" source="R6dQG0pAH_0pQPWXoHSF-1" target="R6dQG0pAH_0pQPWXoHSF-4" edge="1">
          <mxGeometry width="50" height="50" relative="1" as="geometry">
            <mxPoint x="80" y="960" as="sourcePoint" />
            <mxPoint x="130" y="910" as="targetPoint" />
          </mxGeometry>
        </mxCell>
        <mxCell id="NukfgQ5QbaCO7arW-9xG-1" value="" style="rounded=0;whiteSpace=wrap;html=1;" parent="1" vertex="1">
          <mxGeometry x="513.75" y="720" width="338.75" height="270" as="geometry" />
        </mxCell>
        <mxCell id="NukfgQ5QbaCO7arW-9xG-2" value="Utente" style="shape=umlActor;verticalLabelPosition=bottom;verticalAlign=top;html=1;outlineConnect=0;" parent="1" vertex="1">
          <mxGeometry x="403.75" y="760" width="30" height="60" as="geometry" />
        </mxCell>
        <mxCell id="NukfgQ5QbaCO7arW-9xG-3" value="U.C.2 Visualizza lista&amp;nbsp;&lt;div&gt;convesazioni&lt;/div&gt;" style="ellipse;whiteSpace=wrap;html=1;" parent="1" vertex="1">
          <mxGeometry x="588.75" y="765" width="192.5" height="50" as="geometry" />
        </mxCell>
        <mxCell id="NukfgQ5QbaCO7arW-9xG-4" value="&lt;span style=&quot;font-weight: 400;&quot;&gt;LMM Assistente Virtuale&lt;/span&gt;" style="text;align=center;fontStyle=1;verticalAlign=middle;spacingLeft=3;spacingRight=3;strokeColor=none;rotatable=0;points=[[0,0.5],[1,0.5]];portConstraint=eastwest;html=1;" parent="1" vertex="1">
          <mxGeometry x="643.13" y="724" width="80" height="26" as="geometry" />
        </mxCell>
        <mxCell id="NukfgQ5QbaCO7arW-9xG-5" value="" style="endArrow=none;html=1;rounded=0;entryX=0;entryY=0.5;entryDx=0;entryDy=0;" parent="1" source="NukfgQ5QbaCO7arW-9xG-2" target="NukfgQ5QbaCO7arW-9xG-3" edge="1">
          <mxGeometry width="50" height="50" relative="1" as="geometry">
            <mxPoint x="395" y="1105" as="sourcePoint" />
            <mxPoint x="445" y="1055" as="targetPoint" />
          </mxGeometry>
        </mxCell>
        <mxCell id="NukfgQ5QbaCO7arW-9xG-6" value="U.C.2.1 Visualizza Conversazione singola" style="ellipse;whiteSpace=wrap;html=1;" parent="1" vertex="1">
          <mxGeometry x="574.06" y="904.5" width="221.88" height="50" as="geometry" />
        </mxCell>
        <mxCell id="NukfgQ5QbaCO7arW-9xG-7" value="&amp;lt;&amp;lt;include&amp;gt;&amp;gt;" style="endArrow=open;endSize=12;dashed=1;html=1;rounded=0;exitX=0.5;exitY=1;exitDx=0;exitDy=0;entryX=0.5;entryY=0;entryDx=0;entryDy=0;" parent="1" source="NukfgQ5QbaCO7arW-9xG-3" target="NukfgQ5QbaCO7arW-9xG-6" edge="1">
          <mxGeometry x="-0.1111" y="30" width="160" relative="1" as="geometry">
            <mxPoint x="425" y="985" as="sourcePoint" />
            <mxPoint x="585" y="985" as="targetPoint" />
            <mxPoint as="offset" />
          </mxGeometry>
        </mxCell>
        <mxCell id="93jATTlTK8MrKwm5cMIG-1" value="Utente" style="shape=umlActor;verticalLabelPosition=bottom;verticalAlign=top;html=1;outlineConnect=0;" parent="1" vertex="1">
          <mxGeometry x="1700" y="67" width="30" height="60" as="geometry" />
        </mxCell>
        <mxCell id="93jATTlTK8MrKwm5cMIG-2" value="" style="rounded=0;whiteSpace=wrap;html=1;" parent="1" vertex="1">
          <mxGeometry x="1800" y="17" width="240" height="150" as="geometry" />
        </mxCell>
        <mxCell id="93jATTlTK8MrKwm5cMIG-3" value="LLM Assistente Virtuale" style="text;html=1;align=center;verticalAlign=middle;whiteSpace=wrap;rounded=0;" parent="1" vertex="1">
          <mxGeometry x="1855" y="17" width="130" height="30" as="geometry" />
        </mxCell>
        <mxCell id="93jATTlTK8MrKwm5cMIG-4" value="U.C.3 Login" style="ellipse;whiteSpace=wrap;html=1;" parent="1" vertex="1">
          <mxGeometry x="1830" y="57" width="180" height="80" as="geometry" />
        </mxCell>
        <mxCell id="93jATTlTK8MrKwm5cMIG-5" value="" style="endArrow=none;html=1;rounded=0;entryX=0;entryY=0.5;entryDx=0;entryDy=0;" parent="1" source="93jATTlTK8MrKwm5cMIG-1" target="93jATTlTK8MrKwm5cMIG-4" edge="1">
          <mxGeometry width="50" height="50" relative="1" as="geometry">
            <mxPoint x="1750" y="257" as="sourcePoint" />
            <mxPoint x="1800" y="207" as="targetPoint" />
          </mxGeometry>
        </mxCell>
        <mxCell id="yS394_LmMg1O5QsdOu2U-8" value="" style="rounded=0;whiteSpace=wrap;html=1;" parent="1" vertex="1">
          <mxGeometry x="1801.25" y="180" width="338.75" height="270" as="geometry" />
        </mxCell>
        <mxCell id="yS394_LmMg1O5QsdOu2U-9" value="Utente" style="shape=umlActor;verticalLabelPosition=bottom;verticalAlign=top;html=1;outlineConnect=0;" parent="1" vertex="1">
          <mxGeometry x="1700" y="220" width="30" height="60" as="geometry" />
        </mxCell>
        <mxCell id="yS394_LmMg1O5QsdOu2U-10" value="U.C.3 Login" style="ellipse;whiteSpace=wrap;html=1;" parent="1" vertex="1">
          <mxGeometry x="1885" y="225" width="192.5" height="50" as="geometry" />
        </mxCell>
        <mxCell id="yS394_LmMg1O5QsdOu2U-11" value="&lt;span style=&quot;font-weight: 400;&quot;&gt;LMM Assistente Virtuale&lt;/span&gt;" style="text;align=center;fontStyle=1;verticalAlign=middle;spacingLeft=3;spacingRight=3;strokeColor=none;rotatable=0;points=[[0,0.5],[1,0.5]];portConstraint=eastwest;html=1;" parent="1" vertex="1">
          <mxGeometry x="1930.63" y="180" width="80" height="26" as="geometry" />
        </mxCell>
        <mxCell id="yS394_LmMg1O5QsdOu2U-12" value="" style="endArrow=none;html=1;rounded=0;entryX=0;entryY=0.5;entryDx=0;entryDy=0;" parent="1" source="yS394_LmMg1O5QsdOu2U-9" target="yS394_LmMg1O5QsdOu2U-10" edge="1">
          <mxGeometry width="50" height="50" relative="1" as="geometry">
            <mxPoint x="1691.25" y="565" as="sourcePoint" />
            <mxPoint x="1741.25" y="515" as="targetPoint" />
          </mxGeometry>
        </mxCell>
        <mxCell id="yS394_LmMg1O5QsdOu2U-13" value="U.C.3.1 Inserisci Username" style="ellipse;whiteSpace=wrap;html=1;" parent="1" vertex="1">
          <mxGeometry x="1870.31" y="364.5" width="221.88" height="50" as="geometry" />
        </mxCell>
        <mxCell id="yS394_LmMg1O5QsdOu2U-14" value="&amp;lt;&amp;lt;include&amp;gt;&amp;gt;" style="endArrow=open;endSize=12;dashed=1;html=1;rounded=0;exitX=0.5;exitY=1;exitDx=0;exitDy=0;entryX=0.5;entryY=0;entryDx=0;entryDy=0;" parent="1" source="yS394_LmMg1O5QsdOu2U-10" target="yS394_LmMg1O5QsdOu2U-13" edge="1">
          <mxGeometry x="-0.1111" y="30" width="160" relative="1" as="geometry">
            <mxPoint x="1721.25" y="445" as="sourcePoint" />
            <mxPoint x="1881.25" y="445" as="targetPoint" />
            <mxPoint as="offset" />
          </mxGeometry>
        </mxCell>
        <mxCell id="yS394_LmMg1O5QsdOu2U-15" value="" style="rounded=0;whiteSpace=wrap;html=1;" parent="1" vertex="1">
          <mxGeometry x="1801.25" y="460" width="338.75" height="270" as="geometry" />
        </mxCell>
        <mxCell id="yS394_LmMg1O5QsdOu2U-16" value="Utente" style="shape=umlActor;verticalLabelPosition=bottom;verticalAlign=top;html=1;outlineConnect=0;" parent="1" vertex="1">
          <mxGeometry x="1700" y="500" width="30" height="60" as="geometry" />
        </mxCell>
        <mxCell id="yS394_LmMg1O5QsdOu2U-17" value="U.C.3 Login" style="ellipse;whiteSpace=wrap;html=1;" parent="1" vertex="1">
          <mxGeometry x="1885" y="505" width="192.5" height="50" as="geometry" />
        </mxCell>
        <mxCell id="yS394_LmMg1O5QsdOu2U-18" value="&lt;span style=&quot;font-weight: 400;&quot;&gt;LMM Assistente Virtuale&lt;/span&gt;" style="text;align=center;fontStyle=1;verticalAlign=middle;spacingLeft=3;spacingRight=3;strokeColor=none;rotatable=0;points=[[0,0.5],[1,0.5]];portConstraint=eastwest;html=1;" parent="1" vertex="1">
          <mxGeometry x="1930.63" y="468.25" width="80" height="26" as="geometry" />
        </mxCell>
        <mxCell id="yS394_LmMg1O5QsdOu2U-19" value="" style="endArrow=none;html=1;rounded=0;entryX=0;entryY=0.5;entryDx=0;entryDy=0;" parent="1" source="yS394_LmMg1O5QsdOu2U-16" target="yS394_LmMg1O5QsdOu2U-17" edge="1">
          <mxGeometry width="50" height="50" relative="1" as="geometry">
            <mxPoint x="1691.25" y="845" as="sourcePoint" />
            <mxPoint x="1741.25" y="795" as="targetPoint" />
          </mxGeometry>
        </mxCell>
        <mxCell id="yS394_LmMg1O5QsdOu2U-20" value="U.C.3.2 Inserisci Password" style="ellipse;whiteSpace=wrap;html=1;" parent="1" vertex="1">
          <mxGeometry x="1870.31" y="644.5" width="221.88" height="50" as="geometry" />
        </mxCell>
        <mxCell id="yS394_LmMg1O5QsdOu2U-21" value="&amp;lt;&amp;lt;include&amp;gt;&amp;gt;" style="endArrow=open;endSize=12;dashed=1;html=1;rounded=0;exitX=0.5;exitY=1;exitDx=0;exitDy=0;entryX=0.5;entryY=0;entryDx=0;entryDy=0;" parent="1" source="yS394_LmMg1O5QsdOu2U-17" target="yS394_LmMg1O5QsdOu2U-20" edge="1">
          <mxGeometry x="-0.1111" y="30" width="160" relative="1" as="geometry">
            <mxPoint x="1721.25" y="725" as="sourcePoint" />
            <mxPoint x="1881.25" y="725" as="targetPoint" />
            <mxPoint as="offset" />
          </mxGeometry>
        </mxCell>
        <mxCell id="18eHauJZXy3OUxjBwogQ-1" value="" style="rounded=0;whiteSpace=wrap;html=1;" parent="1" vertex="1">
          <mxGeometry x="2290" y="10" width="360" height="307.5" as="geometry" />
        </mxCell>
        <mxCell id="18eHauJZXy3OUxjBwogQ-2" value="Utente" style="shape=umlActor;verticalLabelPosition=bottom;verticalAlign=top;html=1;outlineConnect=0;" parent="1" vertex="1">
          <mxGeometry x="2180" y="50" width="30" height="60" as="geometry" />
        </mxCell>
        <mxCell id="18eHauJZXy3OUxjBwogQ-3" value="U.C.3.1 Inserisci Username" style="ellipse;whiteSpace=wrap;html=1;" parent="1" vertex="1">
          <mxGeometry x="2310" y="55" width="192.5" height="50" as="geometry" />
        </mxCell>
        <mxCell id="18eHauJZXy3OUxjBwogQ-4" value="U.C.3.4 Username Errato" style="ellipse;whiteSpace=wrap;html=1;" parent="1" vertex="1">
          <mxGeometry x="2310" y="245" width="192.5" height="50" as="geometry" />
        </mxCell>
        <mxCell id="18eHauJZXy3OUxjBwogQ-5" value="Errore: Username o Password errati" style="shape=note;whiteSpace=wrap;html=1;backgroundOutline=1;darkOpacity=0.05;align=center;" parent="1" vertex="1">
          <mxGeometry x="2502.5" y="127.5" width="127.5" height="100" as="geometry" />
        </mxCell>
        <mxCell id="18eHauJZXy3OUxjBwogQ-6" value="&amp;lt;&amp;lt;extends&amp;gt;&amp;gt;" style="endArrow=open;endSize=12;dashed=1;html=1;rounded=0;entryX=0.5;entryY=1;entryDx=0;entryDy=0;exitX=0.5;exitY=0;exitDx=0;exitDy=0;" parent="1" source="18eHauJZXy3OUxjBwogQ-4" target="18eHauJZXy3OUxjBwogQ-3" edge="1">
          <mxGeometry y="36" width="160" relative="1" as="geometry">
            <mxPoint x="2320" y="195" as="sourcePoint" />
            <mxPoint x="2480" y="195" as="targetPoint" />
            <mxPoint as="offset" />
          </mxGeometry>
        </mxCell>
        <mxCell id="18eHauJZXy3OUxjBwogQ-7" value="" style="endArrow=none;dashed=1;html=1;dashPattern=1 3;strokeWidth=2;rounded=0;entryX=0;entryY=0.5;entryDx=0;entryDy=0;entryPerimeter=0;" parent="1" target="18eHauJZXy3OUxjBwogQ-5" edge="1">
          <mxGeometry width="50" height="50" relative="1" as="geometry">
            <mxPoint x="2410" y="178" as="sourcePoint" />
            <mxPoint x="2570" y="435" as="targetPoint" />
          </mxGeometry>
        </mxCell>
        <mxCell id="18eHauJZXy3OUxjBwogQ-8" value="&lt;span style=&quot;font-weight: 400;&quot;&gt;U.C.3 Login&lt;/span&gt;" style="text;align=center;fontStyle=1;verticalAlign=middle;spacingLeft=3;spacingRight=3;strokeColor=none;rotatable=0;points=[[0,0.5],[1,0.5]];portConstraint=eastwest;html=1;" parent="1" vertex="1">
          <mxGeometry x="2430" y="10" width="80" height="26" as="geometry" />
        </mxCell>
        <mxCell id="18eHauJZXy3OUxjBwogQ-9" value="" style="endArrow=none;html=1;rounded=0;entryX=0;entryY=0.5;entryDx=0;entryDy=0;" parent="1" source="18eHauJZXy3OUxjBwogQ-2" target="18eHauJZXy3OUxjBwogQ-3" edge="1">
          <mxGeometry width="50" height="50" relative="1" as="geometry">
            <mxPoint x="2180" y="395" as="sourcePoint" />
            <mxPoint x="2230" y="345" as="targetPoint" />
          </mxGeometry>
        </mxCell>
        <mxCell id="18eHauJZXy3OUxjBwogQ-10" value="" style="rounded=0;whiteSpace=wrap;html=1;" parent="1" vertex="1">
          <mxGeometry x="2290" y="327.5" width="360" height="307.5" as="geometry" />
        </mxCell>
        <mxCell id="18eHauJZXy3OUxjBwogQ-11" value="Utente" style="shape=umlActor;verticalLabelPosition=bottom;verticalAlign=top;html=1;outlineConnect=0;" parent="1" vertex="1">
          <mxGeometry x="2180" y="367.5" width="30" height="60" as="geometry" />
        </mxCell>
        <mxCell id="18eHauJZXy3OUxjBwogQ-12" value="U.C.3.1 Inserisci Username" style="ellipse;whiteSpace=wrap;html=1;" parent="1" vertex="1">
          <mxGeometry x="2310" y="372.5" width="192.5" height="50" as="geometry" />
        </mxCell>
        <mxCell id="18eHauJZXy3OUxjBwogQ-13" value="U.C.3.5 Caratteri non Validi" style="ellipse;whiteSpace=wrap;html=1;" parent="1" vertex="1">
          <mxGeometry x="2310" y="562.5" width="192.5" height="50" as="geometry" />
        </mxCell>
        <mxCell id="18eHauJZXy3OUxjBwogQ-14" value="Errore: Caratteri non Conformi" style="shape=note;whiteSpace=wrap;html=1;backgroundOutline=1;darkOpacity=0.05;align=center;" parent="1" vertex="1">
          <mxGeometry x="2502.5" y="445" width="127.5" height="100" as="geometry" />
        </mxCell>
        <mxCell id="18eHauJZXy3OUxjBwogQ-15" value="&amp;lt;&amp;lt;extends&amp;gt;&amp;gt;" style="endArrow=open;endSize=12;dashed=1;html=1;rounded=0;entryX=0.5;entryY=1;entryDx=0;entryDy=0;exitX=0.5;exitY=0;exitDx=0;exitDy=0;" parent="1" source="18eHauJZXy3OUxjBwogQ-13" target="18eHauJZXy3OUxjBwogQ-12" edge="1">
          <mxGeometry y="36" width="160" relative="1" as="geometry">
            <mxPoint x="2320" y="512.5" as="sourcePoint" />
            <mxPoint x="2480" y="512.5" as="targetPoint" />
            <mxPoint as="offset" />
          </mxGeometry>
        </mxCell>
        <mxCell id="18eHauJZXy3OUxjBwogQ-16" value="" style="endArrow=none;dashed=1;html=1;dashPattern=1 3;strokeWidth=2;rounded=0;entryX=0;entryY=0.5;entryDx=0;entryDy=0;entryPerimeter=0;" parent="1" target="18eHauJZXy3OUxjBwogQ-14" edge="1">
          <mxGeometry width="50" height="50" relative="1" as="geometry">
            <mxPoint x="2410" y="495.5" as="sourcePoint" />
            <mxPoint x="2570" y="752.5" as="targetPoint" />
          </mxGeometry>
        </mxCell>
        <mxCell id="18eHauJZXy3OUxjBwogQ-17" value="&lt;span style=&quot;font-weight: 400;&quot;&gt;U.C.3 Login&lt;/span&gt;" style="text;align=center;fontStyle=1;verticalAlign=middle;spacingLeft=3;spacingRight=3;strokeColor=none;rotatable=0;points=[[0,0.5],[1,0.5]];portConstraint=eastwest;html=1;" parent="1" vertex="1">
          <mxGeometry x="2430" y="330" width="80" height="26" as="geometry" />
        </mxCell>
        <mxCell id="18eHauJZXy3OUxjBwogQ-18" value="" style="endArrow=none;html=1;rounded=0;entryX=0;entryY=0.5;entryDx=0;entryDy=0;" parent="1" source="18eHauJZXy3OUxjBwogQ-11" target="18eHauJZXy3OUxjBwogQ-12" edge="1">
          <mxGeometry width="50" height="50" relative="1" as="geometry">
            <mxPoint x="2180" y="712.5" as="sourcePoint" />
            <mxPoint x="2230" y="662.5" as="targetPoint" />
          </mxGeometry>
        </mxCell>
        <mxCell id="5R9TT6Z3W3TQEjbvy7hD-1" value="" style="rounded=0;whiteSpace=wrap;html=1;" parent="1" vertex="1">
          <mxGeometry x="2820" y="10" width="360" height="307.5" as="geometry" />
        </mxCell>
        <mxCell id="5R9TT6Z3W3TQEjbvy7hD-2" value="Utente" style="shape=umlActor;verticalLabelPosition=bottom;verticalAlign=top;html=1;outlineConnect=0;" parent="1" vertex="1">
          <mxGeometry x="2710" y="50" width="30" height="60" as="geometry" />
        </mxCell>
        <mxCell id="5R9TT6Z3W3TQEjbvy7hD-3" value="U.C.3.2 Inserisci Password" style="ellipse;whiteSpace=wrap;html=1;" parent="1" vertex="1">
          <mxGeometry x="2840" y="55" width="192.5" height="50" as="geometry" />
        </mxCell>
        <mxCell id="5R9TT6Z3W3TQEjbvy7hD-4" value="U.C.3.3 Password Errata" style="ellipse;whiteSpace=wrap;html=1;" parent="1" vertex="1">
          <mxGeometry x="2840" y="245" width="192.5" height="50" as="geometry" />
        </mxCell>
        <mxCell id="5R9TT6Z3W3TQEjbvy7hD-5" value="Errore: Username o Password errati" style="shape=note;whiteSpace=wrap;html=1;backgroundOutline=1;darkOpacity=0.05;align=center;" parent="1" vertex="1">
          <mxGeometry x="3032.5" y="127.5" width="127.5" height="100" as="geometry" />
        </mxCell>
        <mxCell id="5R9TT6Z3W3TQEjbvy7hD-6" value="&amp;lt;&amp;lt;extends&amp;gt;&amp;gt;" style="endArrow=open;endSize=12;dashed=1;html=1;rounded=0;entryX=0.5;entryY=1;entryDx=0;entryDy=0;exitX=0.5;exitY=0;exitDx=0;exitDy=0;" parent="1" source="5R9TT6Z3W3TQEjbvy7hD-4" target="5R9TT6Z3W3TQEjbvy7hD-3" edge="1">
          <mxGeometry y="36" width="160" relative="1" as="geometry">
            <mxPoint x="2850" y="195" as="sourcePoint" />
            <mxPoint x="3010" y="195" as="targetPoint" />
            <mxPoint as="offset" />
          </mxGeometry>
        </mxCell>
        <mxCell id="5R9TT6Z3W3TQEjbvy7hD-7" value="" style="endArrow=none;dashed=1;html=1;dashPattern=1 3;strokeWidth=2;rounded=0;entryX=0;entryY=0.5;entryDx=0;entryDy=0;entryPerimeter=0;" parent="1" target="5R9TT6Z3W3TQEjbvy7hD-5" edge="1">
          <mxGeometry width="50" height="50" relative="1" as="geometry">
            <mxPoint x="2940" y="178" as="sourcePoint" />
            <mxPoint x="3100" y="435" as="targetPoint" />
          </mxGeometry>
        </mxCell>
        <mxCell id="5R9TT6Z3W3TQEjbvy7hD-8" value="&lt;span style=&quot;font-weight: 400;&quot;&gt;U.C.3 Login&lt;/span&gt;" style="text;align=center;fontStyle=1;verticalAlign=middle;spacingLeft=3;spacingRight=3;strokeColor=none;rotatable=0;points=[[0,0.5],[1,0.5]];portConstraint=eastwest;html=1;" parent="1" vertex="1">
          <mxGeometry x="2960" y="17" width="80" height="26" as="geometry" />
        </mxCell>
        <mxCell id="5R9TT6Z3W3TQEjbvy7hD-9" value="" style="endArrow=none;html=1;rounded=0;entryX=0;entryY=0.5;entryDx=0;entryDy=0;" parent="1" source="5R9TT6Z3W3TQEjbvy7hD-2" target="5R9TT6Z3W3TQEjbvy7hD-3" edge="1">
          <mxGeometry width="50" height="50" relative="1" as="geometry">
            <mxPoint x="2710" y="395" as="sourcePoint" />
            <mxPoint x="2760" y="345" as="targetPoint" />
          </mxGeometry>
        </mxCell>
        <mxCell id="o2WmFxvKSTL9zEKOumfb-1" value="" style="rounded=0;whiteSpace=wrap;html=1;" parent="1" vertex="1">
          <mxGeometry x="2820" y="330" width="360" height="307.5" as="geometry" />
        </mxCell>
        <mxCell id="o2WmFxvKSTL9zEKOumfb-2" value="Utente" style="shape=umlActor;verticalLabelPosition=bottom;verticalAlign=top;html=1;outlineConnect=0;" parent="1" vertex="1">
          <mxGeometry x="2710" y="370" width="30" height="60" as="geometry" />
        </mxCell>
        <mxCell id="o2WmFxvKSTL9zEKOumfb-3" value="U.C.3.2 Inserisci Password" style="ellipse;whiteSpace=wrap;html=1;" parent="1" vertex="1">
          <mxGeometry x="2840" y="375" width="192.5" height="50" as="geometry" />
        </mxCell>
        <mxCell id="o2WmFxvKSTL9zEKOumfb-4" value="U.C.3.5 Caratteri non Validi" style="ellipse;whiteSpace=wrap;html=1;" parent="1" vertex="1">
          <mxGeometry x="2840" y="565" width="192.5" height="50" as="geometry" />
        </mxCell>
        <mxCell id="o2WmFxvKSTL9zEKOumfb-5" value="Errore: Caratteri non Conformi" style="shape=note;whiteSpace=wrap;html=1;backgroundOutline=1;darkOpacity=0.05;align=center;" parent="1" vertex="1">
          <mxGeometry x="3032.5" y="447.5" width="127.5" height="100" as="geometry" />
        </mxCell>
        <mxCell id="o2WmFxvKSTL9zEKOumfb-6" value="&amp;lt;&amp;lt;extends&amp;gt;&amp;gt;" style="endArrow=open;endSize=12;dashed=1;html=1;rounded=0;entryX=0.5;entryY=1;entryDx=0;entryDy=0;exitX=0.5;exitY=0;exitDx=0;exitDy=0;" parent="1" source="o2WmFxvKSTL9zEKOumfb-4" target="o2WmFxvKSTL9zEKOumfb-3" edge="1">
          <mxGeometry y="36" width="160" relative="1" as="geometry">
            <mxPoint x="2850" y="515" as="sourcePoint" />
            <mxPoint x="3010" y="515" as="targetPoint" />
            <mxPoint as="offset" />
          </mxGeometry>
        </mxCell>
        <mxCell id="o2WmFxvKSTL9zEKOumfb-7" value="" style="endArrow=none;dashed=1;html=1;dashPattern=1 3;strokeWidth=2;rounded=0;entryX=0;entryY=0.5;entryDx=0;entryDy=0;entryPerimeter=0;" parent="1" target="o2WmFxvKSTL9zEKOumfb-5" edge="1">
          <mxGeometry width="50" height="50" relative="1" as="geometry">
            <mxPoint x="2940" y="498" as="sourcePoint" />
            <mxPoint x="3100" y="755" as="targetPoint" />
          </mxGeometry>
        </mxCell>
        <mxCell id="o2WmFxvKSTL9zEKOumfb-8" value="&lt;span style=&quot;font-weight: 400;&quot;&gt;U.C.3 Login&lt;/span&gt;" style="text;align=center;fontStyle=1;verticalAlign=middle;spacingLeft=3;spacingRight=3;strokeColor=none;rotatable=0;points=[[0,0.5],[1,0.5]];portConstraint=eastwest;html=1;" parent="1" vertex="1">
          <mxGeometry x="2960" y="337" width="80" height="26" as="geometry" />
        </mxCell>
        <mxCell id="o2WmFxvKSTL9zEKOumfb-9" value="" style="endArrow=none;html=1;rounded=0;entryX=0;entryY=0.5;entryDx=0;entryDy=0;" parent="1" source="o2WmFxvKSTL9zEKOumfb-2" target="o2WmFxvKSTL9zEKOumfb-3" edge="1">
          <mxGeometry width="50" height="50" relative="1" as="geometry">
            <mxPoint x="2710" y="715" as="sourcePoint" />
            <mxPoint x="2760" y="665" as="targetPoint" />
          </mxGeometry>
        </mxCell>
        <mxCell id="PmPYeecK9ad-A0kC27ia-1" value="Utente" style="shape=umlActor;verticalLabelPosition=bottom;verticalAlign=top;html=1;outlineConnect=0;" parent="1" vertex="1">
          <mxGeometry x="30" y="1240" width="30" height="60" as="geometry" />
        </mxCell>
        <mxCell id="PmPYeecK9ad-A0kC27ia-2" value="" style="rounded=0;whiteSpace=wrap;html=1;" parent="1" vertex="1">
          <mxGeometry x="130" y="1190" width="240" height="170" as="geometry" />
        </mxCell>
        <mxCell id="PmPYeecK9ad-A0kC27ia-3" value="LLM Assistente Virtuale" style="text;html=1;align=center;verticalAlign=middle;whiteSpace=wrap;rounded=0;" parent="1" vertex="1">
          <mxGeometry x="185" y="1190" width="130" height="30" as="geometry" />
        </mxCell>
        <mxCell id="PmPYeecK9ad-A0kC27ia-4" value="U.C.4 Sign Up" style="ellipse;whiteSpace=wrap;html=1;" parent="1" vertex="1">
          <mxGeometry x="160" y="1230" width="180" height="80" as="geometry" />
        </mxCell>
        <mxCell id="PmPYeecK9ad-A0kC27ia-5" value="" style="endArrow=none;html=1;rounded=0;entryX=0;entryY=0.5;entryDx=0;entryDy=0;" parent="1" source="PmPYeecK9ad-A0kC27ia-1" target="PmPYeecK9ad-A0kC27ia-4" edge="1">
          <mxGeometry width="50" height="50" relative="1" as="geometry">
            <mxPoint x="80" y="1430" as="sourcePoint" />
            <mxPoint x="130" y="1380" as="targetPoint" />
          </mxGeometry>
        </mxCell>
        <mxCell id="nrKUatyU6BZyHotLKfkG-1" value="" style="rounded=0;whiteSpace=wrap;html=1;" parent="1" vertex="1">
          <mxGeometry x="131.25" y="1380" width="338.75" height="270" as="geometry" />
        </mxCell>
        <mxCell id="nrKUatyU6BZyHotLKfkG-2" value="Utente" style="shape=umlActor;verticalLabelPosition=bottom;verticalAlign=top;html=1;outlineConnect=0;" parent="1" vertex="1">
          <mxGeometry x="30" y="1420" width="30" height="60" as="geometry" />
        </mxCell>
        <mxCell id="nrKUatyU6BZyHotLKfkG-3" value="U.C.4 Sign Up" style="ellipse;whiteSpace=wrap;html=1;" parent="1" vertex="1">
          <mxGeometry x="215" y="1425" width="192.5" height="50" as="geometry" />
        </mxCell>
        <mxCell id="nrKUatyU6BZyHotLKfkG-4" value="&lt;span style=&quot;font-weight: 400;&quot;&gt;LMM Assistente Virtuale&lt;/span&gt;" style="text;align=center;fontStyle=1;verticalAlign=middle;spacingLeft=3;spacingRight=3;strokeColor=none;rotatable=0;points=[[0,0.5],[1,0.5]];portConstraint=eastwest;html=1;" parent="1" vertex="1">
          <mxGeometry x="260.6300000000001" y="1380" width="80" height="26" as="geometry" />
        </mxCell>
        <mxCell id="nrKUatyU6BZyHotLKfkG-5" value="" style="endArrow=none;html=1;rounded=0;entryX=0;entryY=0.5;entryDx=0;entryDy=0;" parent="1" source="nrKUatyU6BZyHotLKfkG-2" target="nrKUatyU6BZyHotLKfkG-3" edge="1">
          <mxGeometry width="50" height="50" relative="1" as="geometry">
            <mxPoint x="21.25" y="1765" as="sourcePoint" />
            <mxPoint x="71.25" y="1715" as="targetPoint" />
          </mxGeometry>
        </mxCell>
        <mxCell id="nrKUatyU6BZyHotLKfkG-6" value="U.C.4.1 Inserisci Username" style="ellipse;whiteSpace=wrap;html=1;" parent="1" vertex="1">
          <mxGeometry x="200.30999999999995" y="1564.5" width="221.88" height="50" as="geometry" />
        </mxCell>
        <mxCell id="nrKUatyU6BZyHotLKfkG-7" value="&amp;lt;&amp;lt;include&amp;gt;&amp;gt;" style="endArrow=open;endSize=12;dashed=1;html=1;rounded=0;exitX=0.5;exitY=1;exitDx=0;exitDy=0;entryX=0.5;entryY=0;entryDx=0;entryDy=0;" parent="1" source="nrKUatyU6BZyHotLKfkG-3" target="nrKUatyU6BZyHotLKfkG-6" edge="1">
          <mxGeometry x="-0.1111" y="30" width="160" relative="1" as="geometry">
            <mxPoint x="51.25" y="1645" as="sourcePoint" />
            <mxPoint x="211.25" y="1645" as="targetPoint" />
            <mxPoint as="offset" />
          </mxGeometry>
        </mxCell>
        <mxCell id="nrKUatyU6BZyHotLKfkG-8" value="" style="rounded=0;whiteSpace=wrap;html=1;" parent="1" vertex="1">
          <mxGeometry x="131.25" y="1660" width="338.75" height="270" as="geometry" />
        </mxCell>
        <mxCell id="nrKUatyU6BZyHotLKfkG-9" value="Utente" style="shape=umlActor;verticalLabelPosition=bottom;verticalAlign=top;html=1;outlineConnect=0;" parent="1" vertex="1">
          <mxGeometry x="30" y="1700" width="30" height="60" as="geometry" />
        </mxCell>
        <mxCell id="nrKUatyU6BZyHotLKfkG-10" value="U.C.4 Sign Up" style="ellipse;whiteSpace=wrap;html=1;" parent="1" vertex="1">
          <mxGeometry x="215" y="1705" width="192.5" height="50" as="geometry" />
        </mxCell>
        <mxCell id="nrKUatyU6BZyHotLKfkG-11" value="&lt;span style=&quot;font-weight: 400;&quot;&gt;LMM Assistente Virtuale&lt;/span&gt;" style="text;align=center;fontStyle=1;verticalAlign=middle;spacingLeft=3;spacingRight=3;strokeColor=none;rotatable=0;points=[[0,0.5],[1,0.5]];portConstraint=eastwest;html=1;" parent="1" vertex="1">
          <mxGeometry x="260.6300000000001" y="1668.25" width="80" height="26" as="geometry" />
        </mxCell>
        <mxCell id="nrKUatyU6BZyHotLKfkG-12" value="" style="endArrow=none;html=1;rounded=0;entryX=0;entryY=0.5;entryDx=0;entryDy=0;" parent="1" source="nrKUatyU6BZyHotLKfkG-9" target="nrKUatyU6BZyHotLKfkG-10" edge="1">
          <mxGeometry width="50" height="50" relative="1" as="geometry">
            <mxPoint x="21.25" y="2045" as="sourcePoint" />
            <mxPoint x="71.25" y="1995" as="targetPoint" />
          </mxGeometry>
        </mxCell>
        <mxCell id="nrKUatyU6BZyHotLKfkG-13" value="U.C.4.2 Inserisci Password" style="ellipse;whiteSpace=wrap;html=1;" parent="1" vertex="1">
          <mxGeometry x="200.30999999999995" y="1844.5" width="221.88" height="50" as="geometry" />
        </mxCell>
        <mxCell id="nrKUatyU6BZyHotLKfkG-14" value="&amp;lt;&amp;lt;include&amp;gt;&amp;gt;" style="endArrow=open;endSize=12;dashed=1;html=1;rounded=0;exitX=0.5;exitY=1;exitDx=0;exitDy=0;entryX=0.5;entryY=0;entryDx=0;entryDy=0;" parent="1" source="nrKUatyU6BZyHotLKfkG-10" target="nrKUatyU6BZyHotLKfkG-13" edge="1">
          <mxGeometry x="-0.1111" y="30" width="160" relative="1" as="geometry">
            <mxPoint x="51.25" y="1925" as="sourcePoint" />
            <mxPoint x="211.25" y="1925" as="targetPoint" />
            <mxPoint as="offset" />
          </mxGeometry>
        </mxCell>
        <mxCell id="A3_wvy2f1hmsFmlQ1ZDr-1" value="" style="rounded=0;whiteSpace=wrap;html=1;" parent="1" vertex="1">
          <mxGeometry x="640" y="1190" width="360" height="307.5" as="geometry" />
        </mxCell>
        <mxCell id="A3_wvy2f1hmsFmlQ1ZDr-2" value="Utente" style="shape=umlActor;verticalLabelPosition=bottom;verticalAlign=top;html=1;outlineConnect=0;" parent="1" vertex="1">
          <mxGeometry x="530" y="1230" width="30" height="60" as="geometry" />
        </mxCell>
        <mxCell id="A3_wvy2f1hmsFmlQ1ZDr-3" value="U.C.4.1 Inserisci Username" style="ellipse;whiteSpace=wrap;html=1;" parent="1" vertex="1">
          <mxGeometry x="660" y="1235" width="192.5" height="50" as="geometry" />
        </mxCell>
        <mxCell id="A3_wvy2f1hmsFmlQ1ZDr-4" value="U.C.4.3 Caratteri non Validi" style="ellipse;whiteSpace=wrap;html=1;" parent="1" vertex="1">
          <mxGeometry x="660" y="1425" width="192.5" height="50" as="geometry" />
        </mxCell>
        <mxCell id="A3_wvy2f1hmsFmlQ1ZDr-5" value="Errore: Caratteri non Conformi" style="shape=note;whiteSpace=wrap;html=1;backgroundOutline=1;darkOpacity=0.05;align=center;" parent="1" vertex="1">
          <mxGeometry x="852.5" y="1307.5" width="127.5" height="100" as="geometry" />
        </mxCell>
        <mxCell id="A3_wvy2f1hmsFmlQ1ZDr-6" value="&amp;lt;&amp;lt;extends&amp;gt;&amp;gt;" style="endArrow=open;endSize=12;dashed=1;html=1;rounded=0;entryX=0.5;entryY=1;entryDx=0;entryDy=0;exitX=0.5;exitY=0;exitDx=0;exitDy=0;" parent="1" source="A3_wvy2f1hmsFmlQ1ZDr-4" target="A3_wvy2f1hmsFmlQ1ZDr-3" edge="1">
          <mxGeometry y="36" width="160" relative="1" as="geometry">
            <mxPoint x="670" y="1375" as="sourcePoint" />
            <mxPoint x="830" y="1375" as="targetPoint" />
            <mxPoint as="offset" />
          </mxGeometry>
        </mxCell>
        <mxCell id="A3_wvy2f1hmsFmlQ1ZDr-7" value="" style="endArrow=none;dashed=1;html=1;dashPattern=1 3;strokeWidth=2;rounded=0;entryX=0;entryY=0.5;entryDx=0;entryDy=0;entryPerimeter=0;" parent="1" target="A3_wvy2f1hmsFmlQ1ZDr-5" edge="1">
          <mxGeometry width="50" height="50" relative="1" as="geometry">
            <mxPoint x="760" y="1358" as="sourcePoint" />
            <mxPoint x="920" y="1615" as="targetPoint" />
          </mxGeometry>
        </mxCell>
        <mxCell id="A3_wvy2f1hmsFmlQ1ZDr-8" value="&lt;span style=&quot;font-weight: 400;&quot;&gt;U.C.4 Sign Up&lt;/span&gt;" style="text;align=center;fontStyle=1;verticalAlign=middle;spacingLeft=3;spacingRight=3;strokeColor=none;rotatable=0;points=[[0,0.5],[1,0.5]];portConstraint=eastwest;html=1;" parent="1" vertex="1">
          <mxGeometry x="780" y="1197" width="80" height="26" as="geometry" />
        </mxCell>
        <mxCell id="A3_wvy2f1hmsFmlQ1ZDr-9" value="" style="endArrow=none;html=1;rounded=0;entryX=0;entryY=0.5;entryDx=0;entryDy=0;" parent="1" source="A3_wvy2f1hmsFmlQ1ZDr-2" target="A3_wvy2f1hmsFmlQ1ZDr-3" edge="1">
          <mxGeometry width="50" height="50" relative="1" as="geometry">
            <mxPoint x="530" y="1575" as="sourcePoint" />
            <mxPoint x="580" y="1525" as="targetPoint" />
          </mxGeometry>
        </mxCell>
        <mxCell id="PxVkCim27rBzWZ3-zZLv-1" value="" style="rounded=0;whiteSpace=wrap;html=1;" parent="1" vertex="1">
          <mxGeometry x="1210" y="1190" width="360" height="307.5" as="geometry" />
        </mxCell>
        <mxCell id="PxVkCim27rBzWZ3-zZLv-2" value="Utente" style="shape=umlActor;verticalLabelPosition=bottom;verticalAlign=top;html=1;outlineConnect=0;" parent="1" vertex="1">
          <mxGeometry x="1100" y="1230" width="30" height="60" as="geometry" />
        </mxCell>
        <mxCell id="PxVkCim27rBzWZ3-zZLv-3" value="U.C.4.2 Inserisci Password" style="ellipse;whiteSpace=wrap;html=1;" parent="1" vertex="1">
          <mxGeometry x="1230" y="1235" width="192.5" height="50" as="geometry" />
        </mxCell>
        <mxCell id="PxVkCim27rBzWZ3-zZLv-4" value="U.C.4.3 Caratteri non Validi" style="ellipse;whiteSpace=wrap;html=1;" parent="1" vertex="1">
          <mxGeometry x="1230" y="1425" width="192.5" height="50" as="geometry" />
        </mxCell>
        <mxCell id="PxVkCim27rBzWZ3-zZLv-5" value="Errore: Caratteri non Conformi" style="shape=note;whiteSpace=wrap;html=1;backgroundOutline=1;darkOpacity=0.05;align=center;" parent="1" vertex="1">
          <mxGeometry x="1422.5" y="1307.5" width="127.5" height="100" as="geometry" />
        </mxCell>
        <mxCell id="PxVkCim27rBzWZ3-zZLv-6" value="&amp;lt;&amp;lt;extends&amp;gt;&amp;gt;" style="endArrow=open;endSize=12;dashed=1;html=1;rounded=0;entryX=0.5;entryY=1;entryDx=0;entryDy=0;exitX=0.5;exitY=0;exitDx=0;exitDy=0;" parent="1" source="PxVkCim27rBzWZ3-zZLv-4" target="PxVkCim27rBzWZ3-zZLv-3" edge="1">
          <mxGeometry y="36" width="160" relative="1" as="geometry">
            <mxPoint x="1240" y="1375" as="sourcePoint" />
            <mxPoint x="1400" y="1375" as="targetPoint" />
            <mxPoint as="offset" />
          </mxGeometry>
        </mxCell>
        <mxCell id="PxVkCim27rBzWZ3-zZLv-7" value="" style="endArrow=none;dashed=1;html=1;dashPattern=1 3;strokeWidth=2;rounded=0;entryX=0;entryY=0.5;entryDx=0;entryDy=0;entryPerimeter=0;" parent="1" target="PxVkCim27rBzWZ3-zZLv-5" edge="1">
          <mxGeometry width="50" height="50" relative="1" as="geometry">
            <mxPoint x="1330" y="1358" as="sourcePoint" />
            <mxPoint x="1490" y="1615" as="targetPoint" />
          </mxGeometry>
        </mxCell>
        <mxCell id="PxVkCim27rBzWZ3-zZLv-8" value="&lt;span style=&quot;font-weight: 400;&quot;&gt;U.C.4 Sign Up&lt;/span&gt;" style="text;align=center;fontStyle=1;verticalAlign=middle;spacingLeft=3;spacingRight=3;strokeColor=none;rotatable=0;points=[[0,0.5],[1,0.5]];portConstraint=eastwest;html=1;" parent="1" vertex="1">
          <mxGeometry x="1350" y="1197" width="80" height="26" as="geometry" />
        </mxCell>
        <mxCell id="PxVkCim27rBzWZ3-zZLv-9" value="" style="endArrow=none;html=1;rounded=0;entryX=0;entryY=0.5;entryDx=0;entryDy=0;" parent="1" source="PxVkCim27rBzWZ3-zZLv-2" target="PxVkCim27rBzWZ3-zZLv-3" edge="1">
          <mxGeometry width="50" height="50" relative="1" as="geometry">
            <mxPoint x="1100" y="1575" as="sourcePoint" />
            <mxPoint x="1150" y="1525" as="targetPoint" />
          </mxGeometry>
        </mxCell>
        <mxCell id="PxVkCim27rBzWZ3-zZLv-10" value="" style="rounded=0;whiteSpace=wrap;html=1;" parent="1" vertex="1">
          <mxGeometry x="640" y="1520" width="360" height="307.5" as="geometry" />
        </mxCell>
        <mxCell id="PxVkCim27rBzWZ3-zZLv-11" value="Utente" style="shape=umlActor;verticalLabelPosition=bottom;verticalAlign=top;html=1;outlineConnect=0;" parent="1" vertex="1">
          <mxGeometry x="530" y="1560" width="30" height="60" as="geometry" />
        </mxCell>
        <mxCell id="PxVkCim27rBzWZ3-zZLv-12" value="U.C.4.1 Inserisci Username" style="ellipse;whiteSpace=wrap;html=1;" parent="1" vertex="1">
          <mxGeometry x="660" y="1565" width="192.5" height="50" as="geometry" />
        </mxCell>
        <mxCell id="PxVkCim27rBzWZ3-zZLv-13" value="U.C.4.4 Username troppo lungo" style="ellipse;whiteSpace=wrap;html=1;" parent="1" vertex="1">
          <mxGeometry x="660" y="1755" width="192.5" height="50" as="geometry" />
        </mxCell>
        <mxCell id="PxVkCim27rBzWZ3-zZLv-14" value="Errore: Superato il limite max. di caratteri" style="shape=note;whiteSpace=wrap;html=1;backgroundOutline=1;darkOpacity=0.05;align=center;" parent="1" vertex="1">
          <mxGeometry x="852.5" y="1637.5" width="127.5" height="100" as="geometry" />
        </mxCell>
        <mxCell id="PxVkCim27rBzWZ3-zZLv-15" value="&amp;lt;&amp;lt;extends&amp;gt;&amp;gt;" style="endArrow=open;endSize=12;dashed=1;html=1;rounded=0;entryX=0.5;entryY=1;entryDx=0;entryDy=0;exitX=0.5;exitY=0;exitDx=0;exitDy=0;" parent="1" source="PxVkCim27rBzWZ3-zZLv-13" target="PxVkCim27rBzWZ3-zZLv-12" edge="1">
          <mxGeometry y="36" width="160" relative="1" as="geometry">
            <mxPoint x="670" y="1705" as="sourcePoint" />
            <mxPoint x="830" y="1705" as="targetPoint" />
            <mxPoint as="offset" />
          </mxGeometry>
        </mxCell>
        <mxCell id="PxVkCim27rBzWZ3-zZLv-16" value="" style="endArrow=none;dashed=1;html=1;dashPattern=1 3;strokeWidth=2;rounded=0;entryX=0;entryY=0.5;entryDx=0;entryDy=0;entryPerimeter=0;" parent="1" target="PxVkCim27rBzWZ3-zZLv-14" edge="1">
          <mxGeometry width="50" height="50" relative="1" as="geometry">
            <mxPoint x="760" y="1688" as="sourcePoint" />
            <mxPoint x="920" y="1945" as="targetPoint" />
          </mxGeometry>
        </mxCell>
        <mxCell id="PxVkCim27rBzWZ3-zZLv-17" value="&lt;span style=&quot;font-weight: 400;&quot;&gt;U.C.4 Sign Up&lt;/span&gt;" style="text;align=center;fontStyle=1;verticalAlign=middle;spacingLeft=3;spacingRight=3;strokeColor=none;rotatable=0;points=[[0,0.5],[1,0.5]];portConstraint=eastwest;html=1;" parent="1" vertex="1">
          <mxGeometry x="780" y="1527" width="80" height="26" as="geometry" />
        </mxCell>
        <mxCell id="PxVkCim27rBzWZ3-zZLv-18" value="" style="endArrow=none;html=1;rounded=0;entryX=0;entryY=0.5;entryDx=0;entryDy=0;" parent="1" source="PxVkCim27rBzWZ3-zZLv-11" target="PxVkCim27rBzWZ3-zZLv-12" edge="1">
          <mxGeometry width="50" height="50" relative="1" as="geometry">
            <mxPoint x="530" y="1905" as="sourcePoint" />
            <mxPoint x="580" y="1855" as="targetPoint" />
          </mxGeometry>
        </mxCell>
        <mxCell id="PxVkCim27rBzWZ3-zZLv-19" value="" style="rounded=0;whiteSpace=wrap;html=1;" parent="1" vertex="1">
          <mxGeometry x="1210" y="1520" width="360" height="307.5" as="geometry" />
        </mxCell>
        <mxCell id="PxVkCim27rBzWZ3-zZLv-20" value="Utente" style="shape=umlActor;verticalLabelPosition=bottom;verticalAlign=top;html=1;outlineConnect=0;" parent="1" vertex="1">
          <mxGeometry x="1100" y="1560" width="30" height="60" as="geometry" />
        </mxCell>
        <mxCell id="PxVkCim27rBzWZ3-zZLv-21" value="U.C.4.2 Inserisci Password" style="ellipse;whiteSpace=wrap;html=1;" parent="1" vertex="1">
          <mxGeometry x="1230" y="1565" width="192.5" height="50" as="geometry" />
        </mxCell>
        <mxCell id="PxVkCim27rBzWZ3-zZLv-22" value="U.C.4.5 Password troppo lunga" style="ellipse;whiteSpace=wrap;html=1;" parent="1" vertex="1">
          <mxGeometry x="1230" y="1755" width="192.5" height="50" as="geometry" />
        </mxCell>
        <mxCell id="PxVkCim27rBzWZ3-zZLv-23" value="Errore: Superato il limite max di caratteri" style="shape=note;whiteSpace=wrap;html=1;backgroundOutline=1;darkOpacity=0.05;align=center;" parent="1" vertex="1">
          <mxGeometry x="1422.5" y="1637.5" width="127.5" height="100" as="geometry" />
        </mxCell>
        <mxCell id="PxVkCim27rBzWZ3-zZLv-24" value="&amp;lt;&amp;lt;extends&amp;gt;&amp;gt;" style="endArrow=open;endSize=12;dashed=1;html=1;rounded=0;entryX=0.5;entryY=1;entryDx=0;entryDy=0;exitX=0.5;exitY=0;exitDx=0;exitDy=0;" parent="1" source="PxVkCim27rBzWZ3-zZLv-22" target="PxVkCim27rBzWZ3-zZLv-21" edge="1">
          <mxGeometry y="36" width="160" relative="1" as="geometry">
            <mxPoint x="1240" y="1705" as="sourcePoint" />
            <mxPoint x="1400" y="1705" as="targetPoint" />
            <mxPoint as="offset" />
          </mxGeometry>
        </mxCell>
        <mxCell id="PxVkCim27rBzWZ3-zZLv-25" value="" style="endArrow=none;dashed=1;html=1;dashPattern=1 3;strokeWidth=2;rounded=0;entryX=0;entryY=0.5;entryDx=0;entryDy=0;entryPerimeter=0;" parent="1" target="PxVkCim27rBzWZ3-zZLv-23" edge="1">
          <mxGeometry width="50" height="50" relative="1" as="geometry">
            <mxPoint x="1330" y="1688" as="sourcePoint" />
            <mxPoint x="1490" y="1945" as="targetPoint" />
          </mxGeometry>
        </mxCell>
        <mxCell id="PxVkCim27rBzWZ3-zZLv-26" value="&lt;span style=&quot;font-weight: 400;&quot;&gt;U.C.4 Sign Up&lt;/span&gt;" style="text;align=center;fontStyle=1;verticalAlign=middle;spacingLeft=3;spacingRight=3;strokeColor=none;rotatable=0;points=[[0,0.5],[1,0.5]];portConstraint=eastwest;html=1;" parent="1" vertex="1">
          <mxGeometry x="1350" y="1527" width="80" height="26" as="geometry" />
        </mxCell>
        <mxCell id="PxVkCim27rBzWZ3-zZLv-27" value="" style="endArrow=none;html=1;rounded=0;entryX=0;entryY=0.5;entryDx=0;entryDy=0;" parent="1" source="PxVkCim27rBzWZ3-zZLv-20" target="PxVkCim27rBzWZ3-zZLv-21" edge="1">
          <mxGeometry width="50" height="50" relative="1" as="geometry">
            <mxPoint x="1100" y="1905" as="sourcePoint" />
            <mxPoint x="1150" y="1855" as="targetPoint" />
          </mxGeometry>
        </mxCell>
        <mxCell id="4hn2NL57cicOQfGzYyun-1" value="" style="rounded=0;whiteSpace=wrap;html=1;" parent="1" vertex="1">
          <mxGeometry x="640" y="1850" width="360" height="307.5" as="geometry" />
        </mxCell>
        <mxCell id="4hn2NL57cicOQfGzYyun-2" value="Utente" style="shape=umlActor;verticalLabelPosition=bottom;verticalAlign=top;html=1;outlineConnect=0;" parent="1" vertex="1">
          <mxGeometry x="530" y="1890" width="30" height="60" as="geometry" />
        </mxCell>
        <mxCell id="4hn2NL57cicOQfGzYyun-3" value="U.C.4.1 Inserisci Username" style="ellipse;whiteSpace=wrap;html=1;" parent="1" vertex="1">
          <mxGeometry x="660" y="1895" width="192.5" height="50" as="geometry" />
        </mxCell>
        <mxCell id="4hn2NL57cicOQfGzYyun-4" value="U.C.4.6 Username già presente" style="ellipse;whiteSpace=wrap;html=1;" parent="1" vertex="1">
          <mxGeometry x="660" y="2085" width="192.5" height="50" as="geometry" />
        </mxCell>
        <mxCell id="4hn2NL57cicOQfGzYyun-5" value="Errore: Utente già esistente" style="shape=note;whiteSpace=wrap;html=1;backgroundOutline=1;darkOpacity=0.05;align=center;" parent="1" vertex="1">
          <mxGeometry x="852.5" y="1967.5" width="127.5" height="100" as="geometry" />
        </mxCell>
        <mxCell id="4hn2NL57cicOQfGzYyun-6" value="&amp;lt;&amp;lt;extends&amp;gt;&amp;gt;" style="endArrow=open;endSize=12;dashed=1;html=1;rounded=0;entryX=0.5;entryY=1;entryDx=0;entryDy=0;exitX=0.5;exitY=0;exitDx=0;exitDy=0;" parent="1" source="4hn2NL57cicOQfGzYyun-4" target="4hn2NL57cicOQfGzYyun-3" edge="1">
          <mxGeometry y="36" width="160" relative="1" as="geometry">
            <mxPoint x="670" y="2035" as="sourcePoint" />
            <mxPoint x="830" y="2035" as="targetPoint" />
            <mxPoint as="offset" />
          </mxGeometry>
        </mxCell>
        <mxCell id="4hn2NL57cicOQfGzYyun-7" value="" style="endArrow=none;dashed=1;html=1;dashPattern=1 3;strokeWidth=2;rounded=0;entryX=0;entryY=0.5;entryDx=0;entryDy=0;entryPerimeter=0;" parent="1" target="4hn2NL57cicOQfGzYyun-5" edge="1">
          <mxGeometry width="50" height="50" relative="1" as="geometry">
            <mxPoint x="760" y="2018" as="sourcePoint" />
            <mxPoint x="920" y="2275" as="targetPoint" />
          </mxGeometry>
        </mxCell>
        <mxCell id="4hn2NL57cicOQfGzYyun-8" value="&lt;span style=&quot;font-weight: 400;&quot;&gt;U.C.4 Sign Up&lt;/span&gt;" style="text;align=center;fontStyle=1;verticalAlign=middle;spacingLeft=3;spacingRight=3;strokeColor=none;rotatable=0;points=[[0,0.5],[1,0.5]];portConstraint=eastwest;html=1;" parent="1" vertex="1">
          <mxGeometry x="780" y="1857" width="80" height="26" as="geometry" />
        </mxCell>
        <mxCell id="4hn2NL57cicOQfGzYyun-9" value="" style="endArrow=none;html=1;rounded=0;entryX=0;entryY=0.5;entryDx=0;entryDy=0;" parent="1" source="4hn2NL57cicOQfGzYyun-2" target="4hn2NL57cicOQfGzYyun-3" edge="1">
          <mxGeometry width="50" height="50" relative="1" as="geometry">
            <mxPoint x="530" y="2235" as="sourcePoint" />
            <mxPoint x="580" y="2185" as="targetPoint" />
          </mxGeometry>
        </mxCell>
        <mxCell id="biGX9nDdHen02SZw9W0T-1" value="Utente" style="shape=umlActor;verticalLabelPosition=bottom;verticalAlign=top;html=1;outlineConnect=0;" parent="1" vertex="1">
          <mxGeometry x="700" y="413" width="30" height="60" as="geometry" />
        </mxCell>
        <mxCell id="biGX9nDdHen02SZw9W0T-2" value="" style="rounded=0;whiteSpace=wrap;html=1;" parent="1" vertex="1">
          <mxGeometry x="800" y="363" width="240" height="170" as="geometry" />
        </mxCell>
        <mxCell id="biGX9nDdHen02SZw9W0T-3" value="LLM Assistente Virtuale" style="text;html=1;align=center;verticalAlign=middle;whiteSpace=wrap;rounded=0;" parent="1" vertex="1">
          <mxGeometry x="855" y="363" width="130" height="30" as="geometry" />
        </mxCell>
        <mxCell id="biGX9nDdHen02SZw9W0T-4" value="U.C.5 Salva Chat" style="ellipse;whiteSpace=wrap;html=1;" parent="1" vertex="1">
          <mxGeometry x="830" y="403" width="190" height="80" as="geometry" />
        </mxCell>
        <mxCell id="biGX9nDdHen02SZw9W0T-5" value="" style="endArrow=none;html=1;rounded=0;entryX=0;entryY=0.5;entryDx=0;entryDy=0;" parent="1" source="biGX9nDdHen02SZw9W0T-1" target="biGX9nDdHen02SZw9W0T-4" edge="1">
          <mxGeometry width="50" height="50" relative="1" as="geometry">
            <mxPoint x="750" y="603" as="sourcePoint" />
            <mxPoint x="800" y="553" as="targetPoint" />
          </mxGeometry>
        </mxCell>
        <mxCell id="mRhQgkYGBm3jouNQOHeb-1" value="" style="rounded=0;whiteSpace=wrap;html=1;" parent="1" vertex="1">
          <mxGeometry x="1210" y="360" width="360" height="267" as="geometry" />
        </mxCell>
        <mxCell id="mRhQgkYGBm3jouNQOHeb-2" value="Utente" style="shape=umlActor;verticalLabelPosition=bottom;verticalAlign=top;html=1;outlineConnect=0;" parent="1" vertex="1">
          <mxGeometry x="1110" y="400" width="30" height="60" as="geometry" />
        </mxCell>
        <mxCell id="mRhQgkYGBm3jouNQOHeb-3" value="U.C.5 Salva Chat" style="ellipse;whiteSpace=wrap;html=1;" parent="1" vertex="1">
          <mxGeometry x="1240" y="405" width="192.5" height="50" as="geometry" />
        </mxCell>
        <mxCell id="mRhQgkYGBm3jouNQOHeb-4" value="U.C.5.1 Memoria piena" style="ellipse;whiteSpace=wrap;html=1;" parent="1" vertex="1">
          <mxGeometry x="1240" y="544.5" width="192.5" height="50" as="geometry" />
        </mxCell>
        <mxCell id="mRhQgkYGBm3jouNQOHeb-5" value="Impossibile salvare la conversazione" style="shape=note;whiteSpace=wrap;html=1;backgroundOutline=1;darkOpacity=0.05;align=center;" parent="1" vertex="1">
          <mxGeometry x="1465" y="447" width="100" height="110" as="geometry" />
        </mxCell>
        <mxCell id="mRhQgkYGBm3jouNQOHeb-6" value="&amp;lt;&amp;lt;extends&amp;gt;&amp;gt;" style="endArrow=open;endSize=12;dashed=1;html=1;rounded=0;entryX=0.5;entryY=1;entryDx=0;entryDy=0;exitX=0.5;exitY=0;exitDx=0;exitDy=0;" parent="1" source="mRhQgkYGBm3jouNQOHeb-4" target="mRhQgkYGBm3jouNQOHeb-3" edge="1">
          <mxGeometry y="36" width="160" relative="1" as="geometry">
            <mxPoint x="1250" y="545" as="sourcePoint" />
            <mxPoint x="1410" y="545" as="targetPoint" />
            <mxPoint as="offset" />
          </mxGeometry>
        </mxCell>
        <mxCell id="mRhQgkYGBm3jouNQOHeb-7" value="" style="endArrow=none;dashed=1;html=1;dashPattern=1 3;strokeWidth=2;rounded=0;entryX=0;entryY=0.5;entryDx=0;entryDy=0;entryPerimeter=0;" parent="1" target="mRhQgkYGBm3jouNQOHeb-5" edge="1">
          <mxGeometry width="50" height="50" relative="1" as="geometry">
            <mxPoint x="1340" y="503" as="sourcePoint" />
            <mxPoint x="1500" y="785.0000000000001" as="targetPoint" />
          </mxGeometry>
        </mxCell>
        <mxCell id="mRhQgkYGBm3jouNQOHeb-8" value="&lt;span style=&quot;font-weight: 400;&quot;&gt;LLM Assistente virtuale&lt;/span&gt;" style="text;align=center;fontStyle=1;verticalAlign=middle;spacingLeft=3;spacingRight=3;strokeColor=none;rotatable=0;points=[[0,0.5],[1,0.5]];portConstraint=eastwest;html=1;" parent="1" vertex="1">
          <mxGeometry x="1352.5" y="360" width="80" height="26" as="geometry" />
        </mxCell>
        <mxCell id="mRhQgkYGBm3jouNQOHeb-9" value="" style="endArrow=none;html=1;rounded=0;entryX=0;entryY=0.5;entryDx=0;entryDy=0;" parent="1" source="mRhQgkYGBm3jouNQOHeb-2" target="mRhQgkYGBm3jouNQOHeb-3" edge="1">
          <mxGeometry width="50" height="50" relative="1" as="geometry">
            <mxPoint x="1110" y="745.0000000000001" as="sourcePoint" />
            <mxPoint x="1160" y="695.0000000000001" as="targetPoint" />
          </mxGeometry>
        </mxCell>
        <mxCell id="QoviSI-bwFaxZrHOqCiR-1" value="Utente" style="shape=umlActor;verticalLabelPosition=bottom;verticalAlign=top;html=1;outlineConnect=0;" parent="1" vertex="1">
          <mxGeometry x="1232.5" y="67" width="30" height="60" as="geometry" />
        </mxCell>
        <mxCell id="QoviSI-bwFaxZrHOqCiR-2" value="" style="rounded=0;whiteSpace=wrap;html=1;" parent="1" vertex="1">
          <mxGeometry x="1332.5" y="17" width="240" height="145" as="geometry" />
        </mxCell>
        <mxCell id="QoviSI-bwFaxZrHOqCiR-3" value="LLM Assistente Virtuale" style="text;html=1;align=center;verticalAlign=middle;whiteSpace=wrap;rounded=0;" parent="1" vertex="1">
          <mxGeometry x="1395" y="17" width="130" height="30" as="geometry" />
        </mxCell>
        <mxCell id="QoviSI-bwFaxZrHOqCiR-4" value="U.C.10 Elimina Chat" style="ellipse;whiteSpace=wrap;html=1;" parent="1" vertex="1">
          <mxGeometry x="1362.5" y="57" width="190" height="80" as="geometry" />
        </mxCell>
        <mxCell id="QoviSI-bwFaxZrHOqCiR-5" value="" style="endArrow=none;html=1;rounded=0;entryX=0;entryY=0.5;entryDx=0;entryDy=0;" parent="1" source="QoviSI-bwFaxZrHOqCiR-1" target="QoviSI-bwFaxZrHOqCiR-4" edge="1">
          <mxGeometry width="50" height="50" relative="1" as="geometry">
            <mxPoint x="1282.5" y="257" as="sourcePoint" />
            <mxPoint x="1332.5" y="207" as="targetPoint" />
          </mxGeometry>
        </mxCell>
        <mxCell id="M3yfltRiUKojcm57EJfE-1" value="Utente" style="shape=umlActor;verticalLabelPosition=bottom;verticalAlign=top;html=1;outlineConnect=0;" parent="1" vertex="1">
          <mxGeometry x="1232.5" y="230" width="30" height="60" as="geometry" />
        </mxCell>
        <mxCell id="M3yfltRiUKojcm57EJfE-2" value="" style="rounded=0;whiteSpace=wrap;html=1;" parent="1" vertex="1">
          <mxGeometry x="1332.5" y="180" width="240" height="150" as="geometry" />
        </mxCell>
        <mxCell id="M3yfltRiUKojcm57EJfE-3" value="LLM Assistente Virtuale" style="text;html=1;align=center;verticalAlign=middle;whiteSpace=wrap;rounded=0;" parent="1" vertex="1">
          <mxGeometry x="1387.5" y="180" width="130" height="30" as="geometry" />
        </mxCell>
        <mxCell id="M3yfltRiUKojcm57EJfE-4" value="U.C.11 Riprendi Conversazione" style="ellipse;whiteSpace=wrap;html=1;" parent="1" vertex="1">
          <mxGeometry x="1365" y="215" width="190" height="90" as="geometry" />
        </mxCell>
        <mxCell id="M3yfltRiUKojcm57EJfE-5" value="" style="endArrow=none;html=1;rounded=0;entryX=0;entryY=0.5;entryDx=0;entryDy=0;" parent="1" source="M3yfltRiUKojcm57EJfE-1" target="M3yfltRiUKojcm57EJfE-4" edge="1">
          <mxGeometry width="50" height="50" relative="1" as="geometry">
            <mxPoint x="1282.5" y="420" as="sourcePoint" />
            <mxPoint x="1332.5" y="370" as="targetPoint" />
          </mxGeometry>
        </mxCell>
        <mxCell id="9s1SyXbdKmJ-sD1Q7c5o-1" value="Utente" style="shape=umlActor;verticalLabelPosition=bottom;verticalAlign=top;html=1;outlineConnect=0;" parent="1" vertex="1">
          <mxGeometry x="1232.5" y="741" width="30" height="60" as="geometry" />
        </mxCell>
        <mxCell id="9s1SyXbdKmJ-sD1Q7c5o-2" value="" style="rounded=0;whiteSpace=wrap;html=1;" parent="1" vertex="1">
          <mxGeometry x="1332.5" y="686" width="240" height="170" as="geometry" />
        </mxCell>
        <mxCell id="9s1SyXbdKmJ-sD1Q7c5o-3" value="LLM Assistente Virtuale" style="text;html=1;align=center;verticalAlign=middle;whiteSpace=wrap;rounded=0;" parent="1" vertex="1">
          <mxGeometry x="1387.5" y="691" width="130" height="30" as="geometry" />
        </mxCell>
        <mxCell id="9s1SyXbdKmJ-sD1Q7c5o-4" value="&lt;span id=&quot;docs-internal-guid-6dbd8b0d-7fff-b851-b7d0-3e0e82610ad2&quot;&gt;&lt;span style=&quot;font-family: Arial, sans-serif; background-color: transparent; font-variant-numeric: normal; font-variant-east-asian: normal; font-variant-alternates: normal; font-variant-position: normal; vertical-align: baseline; white-space-collapse: preserve;&quot;&gt;&lt;font style=&quot;&quot;&gt;U.C.13 Invia richiesta operatore umano&lt;/font&gt;&lt;/span&gt;&lt;/span&gt;" style="ellipse;whiteSpace=wrap;html=1;" parent="1" vertex="1">
          <mxGeometry x="1362.5" y="731" width="190" height="80" as="geometry" />
        </mxCell>
        <mxCell id="9s1SyXbdKmJ-sD1Q7c5o-5" value="" style="endArrow=none;html=1;rounded=0;entryX=0;entryY=0.5;entryDx=0;entryDy=0;" parent="1" source="9s1SyXbdKmJ-sD1Q7c5o-1" target="9s1SyXbdKmJ-sD1Q7c5o-4" edge="1">
          <mxGeometry width="50" height="50" relative="1" as="geometry">
            <mxPoint x="1282.5" y="931" as="sourcePoint" />
            <mxPoint x="1332.5" y="881" as="targetPoint" />
          </mxGeometry>
        </mxCell>
        <mxCell id="XKZEKm0p46bMQBSaP0bU-1" value="Utente" style="shape=umlActor;verticalLabelPosition=bottom;verticalAlign=top;html=1;outlineConnect=0;" parent="1" vertex="1">
          <mxGeometry x="1232.5" y="960" width="30" height="60" as="geometry" />
        </mxCell>
        <mxCell id="XKZEKm0p46bMQBSaP0bU-2" value="" style="rounded=0;whiteSpace=wrap;html=1;" parent="1" vertex="1">
          <mxGeometry x="1332.5" y="900" width="240" height="180" as="geometry" />
        </mxCell>
        <mxCell id="XKZEKm0p46bMQBSaP0bU-3" value="LLM Assistente Virtuale" style="text;html=1;align=center;verticalAlign=middle;whiteSpace=wrap;rounded=0;" parent="1" vertex="1">
          <mxGeometry x="1387.5" y="910" width="130" height="30" as="geometry" />
        </mxCell>
        <mxCell id="XKZEKm0p46bMQBSaP0bU-4" value="&lt;span id=&quot;docs-internal-guid-b03b15d7-7fff-4212-dcc8-16bb16105b6e&quot; style=&quot;font-family: Arial, sans-serif; background-color: transparent; font-weight: 400; font-style: normal; font-variant: normal; text-decoration: none; vertical-align: baseline; white-space: pre-wrap;&quot;&gt;U.C.6: Feedback Chat&lt;/span&gt;" style="ellipse;whiteSpace=wrap;html=1;" parent="1" vertex="1">
          <mxGeometry x="1362.5" y="950" width="190" height="80" as="geometry" />
        </mxCell>
        <mxCell id="XKZEKm0p46bMQBSaP0bU-5" value="" style="endArrow=none;html=1;rounded=0;entryX=0;entryY=0.5;entryDx=0;entryDy=0;" parent="1" source="XKZEKm0p46bMQBSaP0bU-1" target="XKZEKm0p46bMQBSaP0bU-4" edge="1">
          <mxGeometry width="50" height="50" relative="1" as="geometry">
            <mxPoint x="1282.5" y="1150" as="sourcePoint" />
            <mxPoint x="1332.5" y="1100" as="targetPoint" />
          </mxGeometry>
        </mxCell>
        <mxCell id="AI5QtNLysphOd-7zyXtp-1" value="Admin" style="shape=umlActor;verticalLabelPosition=bottom;verticalAlign=top;html=1;outlineConnect=0;" parent="1" vertex="1">
          <mxGeometry x="1700" y="1240" width="30" height="60" as="geometry" />
        </mxCell>
        <mxCell id="AI5QtNLysphOd-7zyXtp-2" value="" style="rounded=0;whiteSpace=wrap;html=1;" parent="1" vertex="1">
          <mxGeometry x="1800" y="1190" width="240" height="150" as="geometry" />
        </mxCell>
        <mxCell id="AI5QtNLysphOd-7zyXtp-3" value="LLM Assistente Virtuale" style="text;html=1;align=center;verticalAlign=middle;whiteSpace=wrap;rounded=0;" parent="1" vertex="1">
          <mxGeometry x="1855" y="1190" width="130" height="30" as="geometry" />
        </mxCell>
        <mxCell id="AI5QtNLysphOd-7zyXtp-4" value="&lt;font&gt;U.C.7 &lt;span id=&quot;docs-internal-guid-623ee65a-7fff-1f57-e393-9a9269ed37c3&quot; style=&quot;font-family: Arial, sans-serif; background-color: transparent; font-weight: 400; font-style: normal; font-variant: normal; text-decoration: none; vertical-align: baseline; white-space: pre-wrap;&quot;&gt;Configurazione Template Domande e Risposte&lt;/span&gt;&lt;/font&gt;" style="ellipse;whiteSpace=wrap;html=1;" parent="1" vertex="1">
          <mxGeometry x="1830" y="1230" width="190" height="80" as="geometry" />
        </mxCell>
        <mxCell id="AI5QtNLysphOd-7zyXtp-5" value="" style="endArrow=none;html=1;rounded=0;entryX=0;entryY=0.5;entryDx=0;entryDy=0;" parent="1" source="AI5QtNLysphOd-7zyXtp-1" target="AI5QtNLysphOd-7zyXtp-4" edge="1">
          <mxGeometry width="50" height="50" relative="1" as="geometry">
            <mxPoint x="1750" y="1430" as="sourcePoint" />
            <mxPoint x="1800" y="1380" as="targetPoint" />
          </mxGeometry>
        </mxCell>
        <mxCell id="hbC20M-UaraWhEs7xCLD-1" value="Admin" style="shape=umlActor;verticalLabelPosition=bottom;verticalAlign=top;html=1;outlineConnect=0;" parent="1" vertex="1">
          <mxGeometry x="1700" y="1411" width="30" height="60" as="geometry" />
        </mxCell>
        <mxCell id="hbC20M-UaraWhEs7xCLD-2" value="" style="rounded=0;whiteSpace=wrap;html=1;" parent="1" vertex="1">
          <mxGeometry x="1800" y="1356" width="480" height="156" as="geometry" />
        </mxCell>
        <mxCell id="hbC20M-UaraWhEs7xCLD-3" value="LLM Assistente Virtuale" style="text;html=1;align=center;verticalAlign=middle;whiteSpace=wrap;rounded=0;" parent="1" vertex="1">
          <mxGeometry x="1975" y="1356" width="130" height="30" as="geometry" />
        </mxCell>
        <mxCell id="hbC20M-UaraWhEs7xCLD-4" value="U.C.7 Configurazione Template&lt;div&gt;Domande e Risposte&lt;/div&gt;" style="ellipse;whiteSpace=wrap;html=1;" parent="1" vertex="1">
          <mxGeometry x="1830" y="1407.25" width="180" height="67" as="geometry" />
        </mxCell>
        <mxCell id="hbC20M-UaraWhEs7xCLD-5" value="" style="endArrow=none;html=1;rounded=0;entryX=0;entryY=0.5;entryDx=0;entryDy=0;" parent="1" source="hbC20M-UaraWhEs7xCLD-1" target="hbC20M-UaraWhEs7xCLD-4" edge="1">
          <mxGeometry width="50" height="50" relative="1" as="geometry">
            <mxPoint x="1750" y="1601" as="sourcePoint" />
            <mxPoint x="1800" y="1551" as="targetPoint" />
          </mxGeometry>
        </mxCell>
        <mxCell id="hbC20M-UaraWhEs7xCLD-7" value="" style="endArrow=block;endSize=16;endFill=0;html=1;rounded=0;exitX=0;exitY=0.5;exitDx=0;exitDy=0;entryX=1;entryY=0.5;entryDx=0;entryDy=0;" parent="1" source="hbC20M-UaraWhEs7xCLD-8" target="hbC20M-UaraWhEs7xCLD-4" edge="1">
          <mxGeometry width="160" relative="1" as="geometry">
            <mxPoint x="2079.9999999999955" y="1440.7500000000002" as="sourcePoint" />
            <mxPoint x="2140" y="1442" as="targetPoint" />
          </mxGeometry>
        </mxCell>
        <mxCell id="hbC20M-UaraWhEs7xCLD-8" value="U.C.7.1 Creazione di un nuovo&lt;br&gt;Template" style="ellipse;whiteSpace=wrap;html=1;" parent="1" vertex="1">
          <mxGeometry x="2077.5" y="1407.25" width="180" height="67" as="geometry" />
        </mxCell>
        <mxCell id="hbC20M-UaraWhEs7xCLD-10" value="Admin" style="shape=umlActor;verticalLabelPosition=bottom;verticalAlign=top;html=1;outlineConnect=0;" parent="1" vertex="1">
          <mxGeometry x="1700" y="1583" width="30" height="60" as="geometry" />
        </mxCell>
        <mxCell id="hbC20M-UaraWhEs7xCLD-11" value="" style="rounded=0;whiteSpace=wrap;html=1;" parent="1" vertex="1">
          <mxGeometry x="1800" y="1528" width="480" height="156" as="geometry" />
        </mxCell>
        <mxCell id="hbC20M-UaraWhEs7xCLD-12" value="LLM Assistente Virtuale" style="text;html=1;align=center;verticalAlign=middle;whiteSpace=wrap;rounded=0;" parent="1" vertex="1">
          <mxGeometry x="1975" y="1528" width="130" height="30" as="geometry" />
        </mxCell>
        <mxCell id="hbC20M-UaraWhEs7xCLD-13" value="U.C.7 Configurazione Template&lt;div&gt;Domande e Risposte&lt;/div&gt;" style="ellipse;whiteSpace=wrap;html=1;" parent="1" vertex="1">
          <mxGeometry x="1830" y="1579.25" width="180" height="67" as="geometry" />
        </mxCell>
        <mxCell id="hbC20M-UaraWhEs7xCLD-14" value="" style="endArrow=none;html=1;rounded=0;entryX=0;entryY=0.5;entryDx=0;entryDy=0;" parent="1" source="hbC20M-UaraWhEs7xCLD-10" target="hbC20M-UaraWhEs7xCLD-13" edge="1">
          <mxGeometry width="50" height="50" relative="1" as="geometry">
            <mxPoint x="1750" y="1773" as="sourcePoint" />
            <mxPoint x="1800" y="1723" as="targetPoint" />
          </mxGeometry>
        </mxCell>
        <mxCell id="hbC20M-UaraWhEs7xCLD-15" value="" style="endArrow=block;endSize=16;endFill=0;html=1;rounded=0;exitX=0;exitY=0.5;exitDx=0;exitDy=0;entryX=1;entryY=0.5;entryDx=0;entryDy=0;" parent="1" source="hbC20M-UaraWhEs7xCLD-16" target="hbC20M-UaraWhEs7xCLD-13" edge="1">
          <mxGeometry width="160" relative="1" as="geometry">
            <mxPoint x="2079.9999999999955" y="1612.7500000000002" as="sourcePoint" />
            <mxPoint x="2140" y="1614" as="targetPoint" />
          </mxGeometry>
        </mxCell>
        <mxCell id="hbC20M-UaraWhEs7xCLD-16" value="U.C.7.2 Modifica di un&lt;div&gt;Template Esistente&lt;/div&gt;" style="ellipse;whiteSpace=wrap;html=1;" parent="1" vertex="1">
          <mxGeometry x="2077.5" y="1579.25" width="180" height="67" as="geometry" />
        </mxCell>
        <mxCell id="hbC20M-UaraWhEs7xCLD-17" value="Admin" style="shape=umlActor;verticalLabelPosition=bottom;verticalAlign=top;html=1;outlineConnect=0;" parent="1" vertex="1">
          <mxGeometry x="1700" y="1756" width="30" height="60" as="geometry" />
        </mxCell>
        <mxCell id="hbC20M-UaraWhEs7xCLD-18" value="" style="rounded=0;whiteSpace=wrap;html=1;" parent="1" vertex="1">
          <mxGeometry x="1800" y="1701" width="480" height="156" as="geometry" />
        </mxCell>
        <mxCell id="hbC20M-UaraWhEs7xCLD-19" value="LLM Assistente Virtuale" style="text;html=1;align=center;verticalAlign=middle;whiteSpace=wrap;rounded=0;" parent="1" vertex="1">
          <mxGeometry x="1975" y="1701" width="130" height="30" as="geometry" />
        </mxCell>
        <mxCell id="hbC20M-UaraWhEs7xCLD-20" value="U.C.7 Configurazione Template&lt;div&gt;Domande e Risposte&lt;/div&gt;" style="ellipse;whiteSpace=wrap;html=1;" parent="1" vertex="1">
          <mxGeometry x="1830" y="1752.25" width="180" height="67" as="geometry" />
        </mxCell>
        <mxCell id="hbC20M-UaraWhEs7xCLD-21" value="" style="endArrow=none;html=1;rounded=0;entryX=0;entryY=0.5;entryDx=0;entryDy=0;" parent="1" source="hbC20M-UaraWhEs7xCLD-17" target="hbC20M-UaraWhEs7xCLD-20" edge="1">
          <mxGeometry width="50" height="50" relative="1" as="geometry">
            <mxPoint x="1750" y="1946" as="sourcePoint" />
            <mxPoint x="1800" y="1896" as="targetPoint" />
          </mxGeometry>
        </mxCell>
        <mxCell id="hbC20M-UaraWhEs7xCLD-22" value="" style="endArrow=block;endSize=16;endFill=0;html=1;rounded=0;exitX=0;exitY=0.5;exitDx=0;exitDy=0;entryX=1;entryY=0.5;entryDx=0;entryDy=0;" parent="1" source="hbC20M-UaraWhEs7xCLD-23" target="hbC20M-UaraWhEs7xCLD-20" edge="1">
          <mxGeometry width="160" relative="1" as="geometry">
            <mxPoint x="2079.9999999999955" y="1785.7500000000002" as="sourcePoint" />
            <mxPoint x="2140" y="1787" as="targetPoint" />
          </mxGeometry>
        </mxCell>
        <mxCell id="hbC20M-UaraWhEs7xCLD-23" value="U.C.7.3 Elimina un Template&lt;div&gt;Esistente&lt;/div&gt;" style="ellipse;whiteSpace=wrap;html=1;" parent="1" vertex="1">
          <mxGeometry x="2077.5" y="1752.25" width="180" height="67" as="geometry" />
        </mxCell>
        <mxCell id="gKZxJc-MBZ78xV9o0Bun-1" value="" style="rounded=0;whiteSpace=wrap;html=1;" parent="1" vertex="1">
          <mxGeometry x="2420" y="1190" width="360" height="333.75" as="geometry" />
        </mxCell>
        <mxCell id="gKZxJc-MBZ78xV9o0Bun-2" value="Admin" style="shape=umlActor;verticalLabelPosition=bottom;verticalAlign=top;html=1;outlineConnect=0;" parent="1" vertex="1">
          <mxGeometry x="2310" y="1256.25" width="30" height="60" as="geometry" />
        </mxCell>
        <mxCell id="gKZxJc-MBZ78xV9o0Bun-3" value="&lt;span id=&quot;docs-internal-guid-627f47e7-7fff-4cfc-60b1-c8abcbfeea9e&quot; style=&quot;font-family: Arial, sans-serif; background-color: transparent; font-weight: 400; font-style: normal; font-variant: normal; text-decoration: none; vertical-align: baseline; white-space: pre-wrap;&quot;&gt;U.C.7.1: Creazione di un nuovo template&lt;/span&gt;" style="ellipse;whiteSpace=wrap;html=1;" parent="1" vertex="1">
          <mxGeometry x="2440" y="1261.25" width="192.5" height="50" as="geometry" />
        </mxCell>
        <mxCell id="gKZxJc-MBZ78xV9o0Bun-4" value="U.C.7.4 Controllo validità&lt;div&gt;Formato&lt;/div&gt;" style="ellipse;whiteSpace=wrap;html=1;" parent="1" vertex="1">
          <mxGeometry x="2440" y="1451.25" width="192.5" height="50" as="geometry" />
        </mxCell>
        <mxCell id="gKZxJc-MBZ78xV9o0Bun-5" value="Errore: Formato&amp;nbsp;&lt;div&gt;Template Invalido&lt;/div&gt;" style="shape=note;whiteSpace=wrap;html=1;backgroundOutline=1;darkOpacity=0.05;align=center;" parent="1" vertex="1">
          <mxGeometry x="2632.5" y="1333.75" width="127.5" height="100" as="geometry" />
        </mxCell>
        <mxCell id="gKZxJc-MBZ78xV9o0Bun-6" value="&amp;lt;&amp;lt;extends&amp;gt;&amp;gt;" style="endArrow=open;endSize=12;dashed=1;html=1;rounded=0;entryX=0.5;entryY=1;entryDx=0;entryDy=0;exitX=0.5;exitY=0;exitDx=0;exitDy=0;" parent="1" source="gKZxJc-MBZ78xV9o0Bun-4" target="gKZxJc-MBZ78xV9o0Bun-3" edge="1">
          <mxGeometry y="36" width="160" relative="1" as="geometry">
            <mxPoint x="2450" y="1401.25" as="sourcePoint" />
            <mxPoint x="2610" y="1401.25" as="targetPoint" />
            <mxPoint as="offset" />
          </mxGeometry>
        </mxCell>
        <mxCell id="gKZxJc-MBZ78xV9o0Bun-7" value="" style="endArrow=none;dashed=1;html=1;dashPattern=1 3;strokeWidth=2;rounded=0;entryX=0;entryY=0.5;entryDx=0;entryDy=0;entryPerimeter=0;" parent="1" target="gKZxJc-MBZ78xV9o0Bun-5" edge="1">
          <mxGeometry width="50" height="50" relative="1" as="geometry">
            <mxPoint x="2540" y="1384.25" as="sourcePoint" />
            <mxPoint x="2700" y="1641.25" as="targetPoint" />
          </mxGeometry>
        </mxCell>
        <mxCell id="gKZxJc-MBZ78xV9o0Bun-8" value="&lt;font style=&quot;font-weight: normal;&quot;&gt;U.C.7 &lt;span id=&quot;docs-internal-guid-623ee65a-7fff-1f57-e393-9a9269ed37c3&quot; style=&quot;font-family: Arial, sans-serif; background-color: transparent; font-style: normal; font-variant: normal; text-decoration: none; vertical-align: baseline; white-space: pre-wrap;&quot;&gt;Configurazione Template Domande e Risposte&lt;/span&gt;&lt;/font&gt;" style="text;align=center;fontStyle=1;verticalAlign=middle;spacingLeft=3;spacingRight=3;strokeColor=none;rotatable=0;points=[[0,0.5],[1,0.5]];portConstraint=eastwest;html=1;" parent="1" vertex="1">
          <mxGeometry x="2423.75" y="1190" width="350" height="50" as="geometry" />
        </mxCell>
        <mxCell id="gKZxJc-MBZ78xV9o0Bun-9" value="" style="endArrow=none;html=1;rounded=0;entryX=0;entryY=0.5;entryDx=0;entryDy=0;" parent="1" source="gKZxJc-MBZ78xV9o0Bun-2" target="gKZxJc-MBZ78xV9o0Bun-3" edge="1">
          <mxGeometry width="50" height="50" relative="1" as="geometry">
            <mxPoint x="2310" y="1601.25" as="sourcePoint" />
            <mxPoint x="2360" y="1551.25" as="targetPoint" />
          </mxGeometry>
        </mxCell>
        <mxCell id="UA_wQGdcFC3Oft4oB8AF-1" value="" style="rounded=0;whiteSpace=wrap;html=1;" parent="1" vertex="1">
          <mxGeometry x="2420" y="1553" width="360" height="333.75" as="geometry" />
        </mxCell>
        <mxCell id="UA_wQGdcFC3Oft4oB8AF-2" value="Admin" style="shape=umlActor;verticalLabelPosition=bottom;verticalAlign=top;html=1;outlineConnect=0;" parent="1" vertex="1">
          <mxGeometry x="2310" y="1619.25" width="30" height="60" as="geometry" />
        </mxCell>
        <mxCell id="UA_wQGdcFC3Oft4oB8AF-3" value="&lt;span id=&quot;docs-internal-guid-85e906f1-7fff-1a07-a5b0-964bbcdbee12&quot; style=&quot;font-family: Arial, sans-serif; background-color: transparent; font-weight: 400; font-style: normal; font-variant: normal; text-decoration: none; vertical-align: baseline; white-space: pre-wrap;&quot;&gt;U.C.7.2: Modifica di un template esistente&lt;/span&gt;" style="ellipse;whiteSpace=wrap;html=1;" parent="1" vertex="1">
          <mxGeometry x="2440" y="1624.25" width="192.5" height="50" as="geometry" />
        </mxCell>
        <mxCell id="UA_wQGdcFC3Oft4oB8AF-4" value="U.C.7.4 Controllo validità&lt;div&gt;&amp;nbsp;Formato&lt;/div&gt;" style="ellipse;whiteSpace=wrap;html=1;" parent="1" vertex="1">
          <mxGeometry x="2440" y="1814.25" width="192.5" height="50" as="geometry" />
        </mxCell>
        <mxCell id="UA_wQGdcFC3Oft4oB8AF-5" value="Errore: Formato&lt;div&gt;Template Invalido&lt;/div&gt;" style="shape=note;whiteSpace=wrap;html=1;backgroundOutline=1;darkOpacity=0.05;align=center;" parent="1" vertex="1">
          <mxGeometry x="2632.5" y="1696.75" width="127.5" height="100" as="geometry" />
        </mxCell>
        <mxCell id="UA_wQGdcFC3Oft4oB8AF-6" value="&amp;lt;&amp;lt;extends&amp;gt;&amp;gt;" style="endArrow=open;endSize=12;dashed=1;html=1;rounded=0;entryX=0.5;entryY=1;entryDx=0;entryDy=0;exitX=0.5;exitY=0;exitDx=0;exitDy=0;" parent="1" source="UA_wQGdcFC3Oft4oB8AF-4" target="UA_wQGdcFC3Oft4oB8AF-3" edge="1">
          <mxGeometry y="36" width="160" relative="1" as="geometry">
            <mxPoint x="2450" y="1764.25" as="sourcePoint" />
            <mxPoint x="2610" y="1764.25" as="targetPoint" />
            <mxPoint as="offset" />
          </mxGeometry>
        </mxCell>
        <mxCell id="UA_wQGdcFC3Oft4oB8AF-7" value="" style="endArrow=none;dashed=1;html=1;dashPattern=1 3;strokeWidth=2;rounded=0;entryX=0;entryY=0.5;entryDx=0;entryDy=0;entryPerimeter=0;" parent="1" target="UA_wQGdcFC3Oft4oB8AF-5" edge="1">
          <mxGeometry width="50" height="50" relative="1" as="geometry">
            <mxPoint x="2540" y="1747.25" as="sourcePoint" />
            <mxPoint x="2700" y="2004.25" as="targetPoint" />
          </mxGeometry>
        </mxCell>
        <mxCell id="UA_wQGdcFC3Oft4oB8AF-8" value="U.C.7 &lt;span id=&quot;docs-internal-guid-623ee65a-7fff-1f57-e393-9a9269ed37c3&quot; style=&quot;font-family: Arial, sans-serif; background-color: transparent; font-weight: 400; font-style: normal; font-variant: normal; text-decoration: none; vertical-align: baseline; white-space: pre-wrap;&quot;&gt;Configurazione Template Domande e Risposte&lt;/span&gt;" style="text;align=center;fontStyle=1;verticalAlign=middle;spacingLeft=3;spacingRight=3;strokeColor=none;rotatable=0;points=[[0,0.5],[1,0.5]];portConstraint=eastwest;html=1;" parent="1" vertex="1">
          <mxGeometry x="2560" y="1565" width="80" height="26" as="geometry" />
        </mxCell>
        <mxCell id="UA_wQGdcFC3Oft4oB8AF-9" value="" style="endArrow=none;html=1;rounded=0;entryX=0;entryY=0.5;entryDx=0;entryDy=0;" parent="1" source="UA_wQGdcFC3Oft4oB8AF-2" target="UA_wQGdcFC3Oft4oB8AF-3" edge="1">
          <mxGeometry width="50" height="50" relative="1" as="geometry">
            <mxPoint x="2310" y="1964.25" as="sourcePoint" />
            <mxPoint x="2360" y="1914.25" as="targetPoint" />
          </mxGeometry>
        </mxCell>
        <mxCell id="_aLD7lEz4aN2MA7E1wzE-1" value="Admin" style="shape=umlActor;verticalLabelPosition=bottom;verticalAlign=top;html=1;outlineConnect=0;" parent="1" vertex="1">
          <mxGeometry x="30" y="2410" width="30" height="60" as="geometry" />
        </mxCell>
        <mxCell id="_aLD7lEz4aN2MA7E1wzE-2" value="" style="rounded=0;whiteSpace=wrap;html=1;" parent="1" vertex="1">
          <mxGeometry x="130" y="2360" width="240" height="170" as="geometry" />
        </mxCell>
        <mxCell id="_aLD7lEz4aN2MA7E1wzE-3" value="LLM Assistente Virtuale" style="text;html=1;align=center;verticalAlign=middle;whiteSpace=wrap;rounded=0;" parent="1" vertex="1">
          <mxGeometry x="185" y="2360" width="130" height="30" as="geometry" />
        </mxCell>
        <mxCell id="_aLD7lEz4aN2MA7E1wzE-4" value="&lt;span id=&quot;docs-internal-guid-a0ea670a-7fff-b1dc-00b6-db5cb8109fc6&quot; style=&quot;font-family: Arial, sans-serif; background-color: transparent; font-weight: 400; font-style: normal; font-variant: normal; text-decoration: none; vertical-align: baseline; white-space: pre-wrap;&quot;&gt;U.C.8: Monitoraggio delle Prestazioni del Sistema&lt;/span&gt;" style="ellipse;whiteSpace=wrap;html=1;" parent="1" vertex="1">
          <mxGeometry x="160" y="2400" width="190" height="80" as="geometry" />
        </mxCell>
        <mxCell id="_aLD7lEz4aN2MA7E1wzE-5" value="" style="endArrow=none;html=1;rounded=0;entryX=0;entryY=0.5;entryDx=0;entryDy=0;" parent="1" source="_aLD7lEz4aN2MA7E1wzE-1" target="_aLD7lEz4aN2MA7E1wzE-4" edge="1">
          <mxGeometry width="50" height="50" relative="1" as="geometry">
            <mxPoint x="80" y="2600" as="sourcePoint" />
            <mxPoint x="130" y="2550" as="targetPoint" />
          </mxGeometry>
        </mxCell>
        <mxCell id="_aLD7lEz4aN2MA7E1wzE-6" value="Admin" style="shape=umlActor;verticalLabelPosition=bottom;verticalAlign=top;html=1;outlineConnect=0;" parent="1" vertex="1">
          <mxGeometry x="30" y="2605" width="30" height="60" as="geometry" />
        </mxCell>
        <mxCell id="_aLD7lEz4aN2MA7E1wzE-7" value="" style="rounded=0;whiteSpace=wrap;html=1;" parent="1" vertex="1">
          <mxGeometry x="130" y="2550" width="480" height="156" as="geometry" />
        </mxCell>
        <mxCell id="_aLD7lEz4aN2MA7E1wzE-8" value="LLM Assistente Virtuale" style="text;html=1;align=center;verticalAlign=middle;whiteSpace=wrap;rounded=0;" parent="1" vertex="1">
          <mxGeometry x="305" y="2550" width="130" height="30" as="geometry" />
        </mxCell>
        <mxCell id="_aLD7lEz4aN2MA7E1wzE-9" value="U.C.8 Monitoraggio delle Prestazioni del Sistema" style="ellipse;whiteSpace=wrap;html=1;" parent="1" vertex="1">
          <mxGeometry x="160" y="2601.25" width="180" height="67" as="geometry" />
        </mxCell>
        <mxCell id="_aLD7lEz4aN2MA7E1wzE-10" value="" style="endArrow=none;html=1;rounded=0;entryX=0;entryY=0.5;entryDx=0;entryDy=0;" parent="1" source="_aLD7lEz4aN2MA7E1wzE-6" target="_aLD7lEz4aN2MA7E1wzE-9" edge="1">
          <mxGeometry width="50" height="50" relative="1" as="geometry">
            <mxPoint x="80" y="2795" as="sourcePoint" />
            <mxPoint x="130" y="2745" as="targetPoint" />
          </mxGeometry>
        </mxCell>
        <mxCell id="_aLD7lEz4aN2MA7E1wzE-11" value="" style="endArrow=block;endSize=16;endFill=0;html=1;rounded=0;exitX=0;exitY=0.5;exitDx=0;exitDy=0;entryX=1;entryY=0.5;entryDx=0;entryDy=0;" parent="1" source="_aLD7lEz4aN2MA7E1wzE-12" target="_aLD7lEz4aN2MA7E1wzE-9" edge="1">
          <mxGeometry width="160" relative="1" as="geometry">
            <mxPoint x="409.99999999999545" y="2634.75" as="sourcePoint" />
            <mxPoint x="470" y="2636" as="targetPoint" />
          </mxGeometry>
        </mxCell>
        <mxCell id="_aLD7lEz4aN2MA7E1wzE-12" value="U.C.8.1 Visualizzazione delle&lt;div&gt;metriche generali&lt;/div&gt;" style="ellipse;whiteSpace=wrap;html=1;" parent="1" vertex="1">
          <mxGeometry x="407.5" y="2601.25" width="180" height="67" as="geometry" />
        </mxCell>
        <mxCell id="_aLD7lEz4aN2MA7E1wzE-13" value="Admin" style="shape=umlActor;verticalLabelPosition=bottom;verticalAlign=top;html=1;outlineConnect=0;" parent="1" vertex="1">
          <mxGeometry x="30" y="2778" width="30" height="60" as="geometry" />
        </mxCell>
        <mxCell id="_aLD7lEz4aN2MA7E1wzE-14" value="" style="rounded=0;whiteSpace=wrap;html=1;" parent="1" vertex="1">
          <mxGeometry x="130" y="2723" width="480" height="156" as="geometry" />
        </mxCell>
        <mxCell id="_aLD7lEz4aN2MA7E1wzE-15" value="LLM Assistente Virtuale" style="text;html=1;align=center;verticalAlign=middle;whiteSpace=wrap;rounded=0;" parent="1" vertex="1">
          <mxGeometry x="305" y="2723" width="130" height="30" as="geometry" />
        </mxCell>
        <mxCell id="_aLD7lEz4aN2MA7E1wzE-16" value="U.C.8 Monitoraggio delle&lt;div&gt;Prestazioni del Sistema&lt;/div&gt;" style="ellipse;whiteSpace=wrap;html=1;" parent="1" vertex="1">
          <mxGeometry x="160" y="2774.25" width="180" height="67" as="geometry" />
        </mxCell>
        <mxCell id="_aLD7lEz4aN2MA7E1wzE-17" value="" style="endArrow=none;html=1;rounded=0;entryX=0;entryY=0.5;entryDx=0;entryDy=0;" parent="1" source="_aLD7lEz4aN2MA7E1wzE-13" target="_aLD7lEz4aN2MA7E1wzE-16" edge="1">
          <mxGeometry width="50" height="50" relative="1" as="geometry">
            <mxPoint x="80" y="2968" as="sourcePoint" />
            <mxPoint x="130" y="2918" as="targetPoint" />
          </mxGeometry>
        </mxCell>
        <mxCell id="_aLD7lEz4aN2MA7E1wzE-18" value="" style="endArrow=block;endSize=16;endFill=0;html=1;rounded=0;exitX=0;exitY=0.5;exitDx=0;exitDy=0;entryX=1;entryY=0.5;entryDx=0;entryDy=0;" parent="1" source="_aLD7lEz4aN2MA7E1wzE-19" target="_aLD7lEz4aN2MA7E1wzE-16" edge="1">
          <mxGeometry width="160" relative="1" as="geometry">
            <mxPoint x="409.99999999999545" y="2807.75" as="sourcePoint" />
            <mxPoint x="470" y="2809" as="targetPoint" />
          </mxGeometry>
        </mxCell>
        <mxCell id="_aLD7lEz4aN2MA7E1wzE-19" value="U.C.8.2 Visualizzazione Feedback Utenti" style="ellipse;whiteSpace=wrap;html=1;" parent="1" vertex="1">
          <mxGeometry x="407.5" y="2774.25" width="180" height="67" as="geometry" />
        </mxCell>
        <mxCell id="nQW8iBmVRSCPO13t0nYz-1" value="Admin" style="shape=umlActor;verticalLabelPosition=bottom;verticalAlign=top;html=1;outlineConnect=0;" parent="1" vertex="1">
          <mxGeometry x="1700" y="2400" width="30" height="60" as="geometry" />
        </mxCell>
        <mxCell id="nQW8iBmVRSCPO13t0nYz-2" value="" style="rounded=0;whiteSpace=wrap;html=1;" parent="1" vertex="1">
          <mxGeometry x="1800" y="2350" width="240" height="170" as="geometry" />
        </mxCell>
        <mxCell id="nQW8iBmVRSCPO13t0nYz-3" value="LLM Assistente Virtuale" style="text;html=1;align=center;verticalAlign=middle;whiteSpace=wrap;rounded=0;" parent="1" vertex="1">
          <mxGeometry x="1855" y="2350" width="130" height="30" as="geometry" />
        </mxCell>
        <mxCell id="nQW8iBmVRSCPO13t0nYz-4" value="&lt;span id=&quot;docs-internal-guid-9bfdd269-7fff-ad77-bc9d-60f9738fa4af&quot; style=&quot;font-family: Arial, sans-serif; background-color: transparent; font-weight: 400; font-style: normal; font-variant: normal; text-decoration: none; vertical-align: baseline; white-space: pre-wrap;&quot;&gt;U.C.9: Gestione Database Relazionale Dati Aziendali&lt;/span&gt;" style="ellipse;whiteSpace=wrap;html=1;" parent="1" vertex="1">
          <mxGeometry x="1830" y="2390" width="190" height="80" as="geometry" />
        </mxCell>
        <mxCell id="nQW8iBmVRSCPO13t0nYz-5" value="" style="endArrow=none;html=1;rounded=0;entryX=0;entryY=0.5;entryDx=0;entryDy=0;" parent="1" source="nQW8iBmVRSCPO13t0nYz-1" target="nQW8iBmVRSCPO13t0nYz-4" edge="1">
          <mxGeometry width="50" height="50" relative="1" as="geometry">
            <mxPoint x="1750" y="2590" as="sourcePoint" />
            <mxPoint x="1800" y="2540" as="targetPoint" />
          </mxGeometry>
        </mxCell>
        <mxCell id="0hc94U8EkOjm0X5-68us-1" value="Admin" style="shape=umlActor;verticalLabelPosition=bottom;verticalAlign=top;html=1;outlineConnect=0;" parent="1" vertex="1">
          <mxGeometry x="1700" y="2600" width="30" height="60" as="geometry" />
        </mxCell>
        <mxCell id="0hc94U8EkOjm0X5-68us-2" value="" style="rounded=0;whiteSpace=wrap;html=1;" parent="1" vertex="1">
          <mxGeometry x="1800" y="2545" width="480" height="156" as="geometry" />
        </mxCell>
        <mxCell id="0hc94U8EkOjm0X5-68us-3" value="LLM Assistente Virtuale" style="text;html=1;align=center;verticalAlign=middle;whiteSpace=wrap;rounded=0;" parent="1" vertex="1">
          <mxGeometry x="1975" y="2545" width="130" height="30" as="geometry" />
        </mxCell>
        <mxCell id="0hc94U8EkOjm0X5-68us-4" value="U.C.9: Gestione Database&lt;div&gt;Relazionale Dati Aziendali&lt;/div&gt;" style="ellipse;whiteSpace=wrap;html=1;" parent="1" vertex="1">
          <mxGeometry x="1830" y="2596.25" width="180" height="67" as="geometry" />
        </mxCell>
        <mxCell id="0hc94U8EkOjm0X5-68us-5" value="" style="endArrow=none;html=1;rounded=0;entryX=0;entryY=0.5;entryDx=0;entryDy=0;" parent="1" source="0hc94U8EkOjm0X5-68us-1" target="0hc94U8EkOjm0X5-68us-4" edge="1">
          <mxGeometry width="50" height="50" relative="1" as="geometry">
            <mxPoint x="1750" y="2790" as="sourcePoint" />
            <mxPoint x="1800" y="2740" as="targetPoint" />
          </mxGeometry>
        </mxCell>
        <mxCell id="0hc94U8EkOjm0X5-68us-6" value="" style="endArrow=block;endSize=16;endFill=0;html=1;rounded=0;exitX=0;exitY=0.5;exitDx=0;exitDy=0;entryX=1;entryY=0.5;entryDx=0;entryDy=0;" parent="1" source="0hc94U8EkOjm0X5-68us-7" target="0hc94U8EkOjm0X5-68us-4" edge="1">
          <mxGeometry width="160" relative="1" as="geometry">
            <mxPoint x="2079.9999999999955" y="2629.75" as="sourcePoint" />
            <mxPoint x="2140" y="2631" as="targetPoint" />
          </mxGeometry>
        </mxCell>
        <mxCell id="0hc94U8EkOjm0X5-68us-7" value="U.C.9.1 Importazione di&amp;nbsp;&lt;div&gt;dati&lt;/div&gt;" style="ellipse;whiteSpace=wrap;html=1;" parent="1" vertex="1">
          <mxGeometry x="2077.5" y="2596.25" width="180" height="67" as="geometry" />
        </mxCell>
        <mxCell id="0hc94U8EkOjm0X5-68us-15" value="" style="rounded=0;whiteSpace=wrap;html=1;" parent="1" vertex="1">
          <mxGeometry x="2420" y="2360" width="360" height="307.5" as="geometry" />
        </mxCell>
        <mxCell id="0hc94U8EkOjm0X5-68us-16" value="Utente" style="shape=umlActor;verticalLabelPosition=bottom;verticalAlign=top;html=1;outlineConnect=0;" parent="1" vertex="1">
          <mxGeometry x="2310" y="2400" width="30" height="60" as="geometry" />
        </mxCell>
        <mxCell id="0hc94U8EkOjm0X5-68us-17" value="U.C.9.1 Importazione di Dati" style="ellipse;whiteSpace=wrap;html=1;" parent="1" vertex="1">
          <mxGeometry x="2440" y="2405" width="192.5" height="50" as="geometry" />
        </mxCell>
        <mxCell id="0hc94U8EkOjm0X5-68us-18" value="U.C.9.2 Validazione Formato" style="ellipse;whiteSpace=wrap;html=1;" parent="1" vertex="1">
          <mxGeometry x="2440" y="2595" width="192.5" height="50" as="geometry" />
        </mxCell>
        <mxCell id="0hc94U8EkOjm0X5-68us-19" value="&amp;nbsp;Messaggio&lt;div&gt;&amp;nbsp;Errore:&lt;/div&gt;&lt;div&gt;Formato Invalido&lt;/div&gt;" style="shape=note;whiteSpace=wrap;html=1;backgroundOutline=1;darkOpacity=0.05;align=center;" parent="1" vertex="1">
          <mxGeometry x="2632.5" y="2477.5" width="127.5" height="100" as="geometry" />
        </mxCell>
        <mxCell id="0hc94U8EkOjm0X5-68us-20" value="&amp;lt;&amp;lt;extends&amp;gt;&amp;gt;" style="endArrow=open;endSize=12;dashed=1;html=1;rounded=0;entryX=0.5;entryY=1;entryDx=0;entryDy=0;exitX=0.5;exitY=0;exitDx=0;exitDy=0;" parent="1" source="0hc94U8EkOjm0X5-68us-18" target="0hc94U8EkOjm0X5-68us-17" edge="1">
          <mxGeometry y="36" width="160" relative="1" as="geometry">
            <mxPoint x="2450" y="2545" as="sourcePoint" />
            <mxPoint x="2610" y="2545" as="targetPoint" />
            <mxPoint as="offset" />
          </mxGeometry>
        </mxCell>
        <mxCell id="0hc94U8EkOjm0X5-68us-21" value="" style="endArrow=none;dashed=1;html=1;dashPattern=1 3;strokeWidth=2;rounded=0;entryX=0;entryY=0.5;entryDx=0;entryDy=0;entryPerimeter=0;" parent="1" target="0hc94U8EkOjm0X5-68us-19" edge="1">
          <mxGeometry width="50" height="50" relative="1" as="geometry">
            <mxPoint x="2540" y="2528" as="sourcePoint" />
            <mxPoint x="2700" y="2785" as="targetPoint" />
          </mxGeometry>
        </mxCell>
        <mxCell id="0hc94U8EkOjm0X5-68us-22" value="&lt;span style=&quot;font-weight: 400;&quot;&gt;U.C.9 Gestione Database&lt;/span&gt;&lt;div&gt;&lt;span style=&quot;font-weight: 400;&quot;&gt;Relazionale Dati Aziendali&lt;/span&gt;&lt;/div&gt;" style="text;align=center;fontStyle=1;verticalAlign=middle;spacingLeft=3;spacingRight=3;strokeColor=none;rotatable=0;points=[[0,0.5],[1,0.5]];portConstraint=eastwest;html=1;" parent="1" vertex="1">
          <mxGeometry x="2560" y="2367" width="80" height="26" as="geometry" />
        </mxCell>
        <mxCell id="0hc94U8EkOjm0X5-68us-23" value="" style="endArrow=none;html=1;rounded=0;entryX=0;entryY=0.5;entryDx=0;entryDy=0;" parent="1" source="0hc94U8EkOjm0X5-68us-16" target="0hc94U8EkOjm0X5-68us-17" edge="1">
          <mxGeometry width="50" height="50" relative="1" as="geometry">
            <mxPoint x="2310" y="2745" as="sourcePoint" />
            <mxPoint x="2360" y="2695" as="targetPoint" />
          </mxGeometry>
        </mxCell>
        <mxCell id="BpWylDnshQW1SmOqB70d-1" value="Admin" style="shape=umlActor;verticalLabelPosition=bottom;verticalAlign=top;html=1;outlineConnect=0;" parent="1" vertex="1">
          <mxGeometry x="643.13" y="2410" width="30" height="60" as="geometry" />
        </mxCell>
        <mxCell id="BpWylDnshQW1SmOqB70d-2" value="" style="rounded=0;whiteSpace=wrap;html=1;" parent="1" vertex="1">
          <mxGeometry x="743.13" y="2359.75" width="240" height="160.25" as="geometry" />
        </mxCell>
        <mxCell id="BpWylDnshQW1SmOqB70d-3" value="LLM Assistente Virtuale" style="text;html=1;align=center;verticalAlign=middle;whiteSpace=wrap;rounded=0;" parent="1" vertex="1">
          <mxGeometry x="798.13" y="2360" width="130" height="30" as="geometry" />
        </mxCell>
        <mxCell id="BpWylDnshQW1SmOqB70d-4" value="&lt;span id=&quot;docs-internal-guid-6dbd8b0d-7fff-b851-b7d0-3e0e82610ad2&quot;&gt;&lt;span style=&quot;font-family: Arial, sans-serif; background-color: transparent; font-variant-numeric: normal; font-variant-east-asian: normal; font-variant-alternates: normal; font-variant-position: normal; vertical-align: baseline; white-space-collapse: preserve;&quot;&gt;&lt;font style=&quot;&quot;&gt;U.C.12 Gestione Richieste &lt;/font&gt;&lt;/span&gt;&lt;/span&gt;&lt;div&gt;&lt;span&gt;&lt;span style=&quot;font-family: Arial, sans-serif; background-color: transparent; font-variant-numeric: normal; font-variant-east-asian: normal; font-variant-alternates: normal; font-variant-position: normal; vertical-align: baseline; white-space-collapse: preserve;&quot;&gt;&lt;font style=&quot;&quot;&gt;Contatti&lt;/font&gt;&lt;/span&gt;&lt;/span&gt;&lt;/div&gt;" style="ellipse;whiteSpace=wrap;html=1;" parent="1" vertex="1">
          <mxGeometry x="773.13" y="2400" width="190" height="80" as="geometry" />
        </mxCell>
        <mxCell id="BpWylDnshQW1SmOqB70d-5" value="" style="endArrow=none;html=1;rounded=0;entryX=0;entryY=0.5;entryDx=0;entryDy=0;" parent="1" source="BpWylDnshQW1SmOqB70d-1" target="BpWylDnshQW1SmOqB70d-4" edge="1">
          <mxGeometry width="50" height="50" relative="1" as="geometry">
            <mxPoint x="693.13" y="2600" as="sourcePoint" />
            <mxPoint x="743.13" y="2550" as="targetPoint" />
          </mxGeometry>
        </mxCell>
        <mxCell id="MqI5ovDzM1x57MCz4SK2-1" value="Admin" style="shape=umlActor;verticalLabelPosition=bottom;verticalAlign=top;html=1;outlineConnect=0;" parent="1" vertex="1">
          <mxGeometry x="640" y="2609.75" width="30" height="60" as="geometry" />
        </mxCell>
        <mxCell id="MqI5ovDzM1x57MCz4SK2-2" value="" style="rounded=0;whiteSpace=wrap;html=1;" parent="1" vertex="1">
          <mxGeometry x="740" y="2554.75" width="480" height="160" as="geometry" />
        </mxCell>
        <mxCell id="MqI5ovDzM1x57MCz4SK2-3" value="LLM Assistente Virtuale" style="text;html=1;align=center;verticalAlign=middle;whiteSpace=wrap;rounded=0;" parent="1" vertex="1">
          <mxGeometry x="915" y="2554.75" width="130" height="30" as="geometry" />
        </mxCell>
        <mxCell id="MqI5ovDzM1x57MCz4SK2-4" value="U.C.12 Gestione Richieste&lt;div&gt;Contatti&lt;/div&gt;" style="ellipse;whiteSpace=wrap;html=1;" parent="1" vertex="1">
          <mxGeometry x="770" y="2606" width="180" height="67" as="geometry" />
        </mxCell>
        <mxCell id="MqI5ovDzM1x57MCz4SK2-5" value="" style="endArrow=none;html=1;rounded=0;entryX=0;entryY=0.5;entryDx=0;entryDy=0;" parent="1" source="MqI5ovDzM1x57MCz4SK2-1" target="MqI5ovDzM1x57MCz4SK2-4" edge="1">
          <mxGeometry width="50" height="50" relative="1" as="geometry">
            <mxPoint x="690" y="2799.75" as="sourcePoint" />
            <mxPoint x="740" y="2749.75" as="targetPoint" />
          </mxGeometry>
        </mxCell>
        <mxCell id="MqI5ovDzM1x57MCz4SK2-6" value="" style="endArrow=block;endSize=16;endFill=0;html=1;rounded=0;exitX=0;exitY=0.5;exitDx=0;exitDy=0;entryX=1;entryY=0.5;entryDx=0;entryDy=0;" parent="1" source="MqI5ovDzM1x57MCz4SK2-7" target="MqI5ovDzM1x57MCz4SK2-4" edge="1">
          <mxGeometry width="160" relative="1" as="geometry">
            <mxPoint x="1019.9999999999955" y="2639.5" as="sourcePoint" />
            <mxPoint x="1080" y="2640.75" as="targetPoint" />
          </mxGeometry>
        </mxCell>
        <mxCell id="MqI5ovDzM1x57MCz4SK2-7" value="U.C.12.1 Risposta alla&lt;div&gt;Richiesta dall&#39;Amministratore&lt;/div&gt;" style="ellipse;whiteSpace=wrap;html=1;" parent="1" vertex="1">
          <mxGeometry x="1017.5" y="2606" width="180" height="67" as="geometry" />
        </mxCell>
        <mxCell id="frEbqCJeil8v748gVTPt-1" value="Admin" style="shape=umlActor;verticalLabelPosition=bottom;verticalAlign=top;html=1;outlineConnect=0;" vertex="1" parent="1">
          <mxGeometry x="1700" y="2805" width="30" height="60" as="geometry" />
        </mxCell>
        <mxCell id="frEbqCJeil8v748gVTPt-2" value="" style="rounded=0;whiteSpace=wrap;html=1;" vertex="1" parent="1">
          <mxGeometry x="1800" y="2750" width="480" height="156" as="geometry" />
        </mxCell>
        <mxCell id="frEbqCJeil8v748gVTPt-3" value="LLM Assistente Virtuale" style="text;html=1;align=center;verticalAlign=middle;whiteSpace=wrap;rounded=0;" vertex="1" parent="1">
          <mxGeometry x="1975" y="2750" width="130" height="30" as="geometry" />
        </mxCell>
        <mxCell id="frEbqCJeil8v748gVTPt-4" value="U.C.9: Gestione Database&lt;div&gt;Relazionale Dati Aziendali&lt;/div&gt;" style="ellipse;whiteSpace=wrap;html=1;" vertex="1" parent="1">
          <mxGeometry x="1830" y="2801.25" width="180" height="67" as="geometry" />
        </mxCell>
        <mxCell id="frEbqCJeil8v748gVTPt-5" value="" style="endArrow=none;html=1;rounded=0;entryX=0;entryY=0.5;entryDx=0;entryDy=0;" edge="1" parent="1" source="frEbqCJeil8v748gVTPt-1" target="frEbqCJeil8v748gVTPt-4">
          <mxGeometry width="50" height="50" relative="1" as="geometry">
            <mxPoint x="1750" y="2995" as="sourcePoint" />
            <mxPoint x="1800" y="2945" as="targetPoint" />
          </mxGeometry>
        </mxCell>
        <mxCell id="frEbqCJeil8v748gVTPt-6" value="" style="endArrow=block;endSize=16;endFill=0;html=1;rounded=0;exitX=0;exitY=0.5;exitDx=0;exitDy=0;entryX=1;entryY=0.5;entryDx=0;entryDy=0;" edge="1" parent="1" source="frEbqCJeil8v748gVTPt-7" target="frEbqCJeil8v748gVTPt-4">
          <mxGeometry width="160" relative="1" as="geometry">
            <mxPoint x="2079.9999999999955" y="2834.75" as="sourcePoint" />
            <mxPoint x="2140" y="2836" as="targetPoint" />
          </mxGeometry>
        </mxCell>
        <mxCell id="frEbqCJeil8v748gVTPt-7" value="U.C.9.3 Esportazione di&amp;nbsp;&lt;div&gt;dati&lt;/div&gt;" style="ellipse;whiteSpace=wrap;html=1;" vertex="1" parent="1">
          <mxGeometry x="2077.5" y="2801.25" width="180" height="67" as="geometry" />
        </mxCell>
        <mxCell id="frEbqCJeil8v748gVTPt-8" value="Admin" style="shape=umlActor;verticalLabelPosition=bottom;verticalAlign=top;html=1;outlineConnect=0;" vertex="1" parent="1">
          <mxGeometry x="640" y="2805" width="30" height="60" as="geometry" />
        </mxCell>
        <mxCell id="frEbqCJeil8v748gVTPt-9" value="" style="rounded=0;whiteSpace=wrap;html=1;" vertex="1" parent="1">
          <mxGeometry x="740" y="2750" width="480" height="160" as="geometry" />
        </mxCell>
        <mxCell id="frEbqCJeil8v748gVTPt-10" value="LLM Assistente Virtuale" style="text;html=1;align=center;verticalAlign=middle;whiteSpace=wrap;rounded=0;" vertex="1" parent="1">
          <mxGeometry x="915" y="2750" width="130" height="30" as="geometry" />
        </mxCell>
        <mxCell id="frEbqCJeil8v748gVTPt-11" value="U.C.12 Gestione Richieste&lt;div&gt;Contatti&lt;/div&gt;" style="ellipse;whiteSpace=wrap;html=1;" vertex="1" parent="1">
          <mxGeometry x="770" y="2801.25" width="180" height="67" as="geometry" />
        </mxCell>
        <mxCell id="frEbqCJeil8v748gVTPt-12" value="" style="endArrow=none;html=1;rounded=0;entryX=0;entryY=0.5;entryDx=0;entryDy=0;" edge="1" parent="1" source="frEbqCJeil8v748gVTPt-8" target="frEbqCJeil8v748gVTPt-11">
          <mxGeometry width="50" height="50" relative="1" as="geometry">
            <mxPoint x="690" y="2995" as="sourcePoint" />
            <mxPoint x="740" y="2945" as="targetPoint" />
          </mxGeometry>
        </mxCell>
        <mxCell id="frEbqCJeil8v748gVTPt-13" value="" style="endArrow=block;endSize=16;endFill=0;html=1;rounded=0;exitX=0;exitY=0.5;exitDx=0;exitDy=0;entryX=1;entryY=0.5;entryDx=0;entryDy=0;" edge="1" parent="1" source="frEbqCJeil8v748gVTPt-14" target="frEbqCJeil8v748gVTPt-11">
          <mxGeometry width="160" relative="1" as="geometry">
            <mxPoint x="1019.9999999999955" y="2834.75" as="sourcePoint" />
            <mxPoint x="1080" y="2836" as="targetPoint" />
          </mxGeometry>
        </mxCell>
        <mxCell id="frEbqCJeil8v748gVTPt-14" value="U.C.12.2 Cambio stato&lt;div&gt;Richiesta&lt;/div&gt;" style="ellipse;whiteSpace=wrap;html=1;" vertex="1" parent="1">
          <mxGeometry x="1017.5" y="2801.25" width="180" height="67" as="geometry" />
        </mxCell>
      </root>
    </mxGraphModel>
  </diagram>
</mxfile>
